<svg id="Layer_1" data-name="Layer 1" xmlns="http://www.w3.org/2000/svg" viewBox="0 0 347.8 347.8"><defs><style>.cls-1,.cls-2{fill:none;stroke:#28397e;stroke-width:7px;}.cls-1{stroke-miterlimit:10;}.cls-2{stroke-linecap:round;stroke-linejoin:round;}.cls-3{fill:#28397e;}.cls-4{fill:#010101;}</style></defs><circle class="cls-1" cx="173.9" cy="173.9" r="170.4"/><line class="cls-2" x1="118.66" y1="94.94" x2="162.81" y2="94.94"/><line class="cls-2" x1="118.77" y1="129.37" x2="162.93" y2="129.37"/><line class="cls-2" x1="118.77" y1="163.72" x2="162.93" y2="163.59"/><path class="cls-3" d="M295.89,514.6h-81v-202H315.87v1.46q0,26.25,0,52.49c0,5.45,2.34,9.5,7.19,12.05a13.3,13.3,0,0,0,6.4,1.25h53.68v8.31H400c0-6.74,0-13.47,0-20.21a31.79,31.79,0,0,0-9.41-22.77q-20-20.31-40.32-40.24a31.26,31.26,0,0,0-22.4-9.22q-58.31-.13-116.61,0a16.26,16.26,0,0,0-3.88.44A12.92,12.92,0,0,0,197.94,309c.11,34.79.05,69.59.05,104.39s0,69.79,0,104.68c0,8,5.33,13.36,13.37,13.36h84.52m36.9-217.74a12.18,12.18,0,0,1,5.63,3.08q20.29,20.25,40.52,40.59c1.45,1.47,2.29,3.54,3.42,5.33L382,363H332.79Z" transform="translate(-124.1 -246.63)"/><path class="cls-4" d="M334.06,538.08c-4.91,0-8.85-2.07-12.05-6.33a21.58,21.58,0,0,1-4.26-13.56,84.87,84.87,0,0,1,1.92-19.36c1.25-5.31,2.92-10.88,6.68-15.6A19.48,19.48,0,0,1,340,475.67l.59,0a4.1,4.1,0,0,1,2.92,1.22,32.8,32.8,0,0,0,22.35,8.45,42.2,42.2,0,0,0,4.58-.26,32.63,32.63,0,0,0,19-8.82,2.12,2.12,0,0,1,1.6-.63h.21a19.42,19.42,0,0,1,14.25,7.17,29.21,29.21,0,0,1,5.13,9.45c2.48,7,3.7,14.92,3.83,25a24.82,24.82,0,0,1-1,8c-1.75,5.46-4.72,9.22-9.09,11.5a12.84,12.84,0,0,1-6.14,1.32H347.37q-6.62,0-13.23,0Z" transform="translate(-124.1 -246.63)"/><path class="cls-4" d="M391,476.1h.18a18.93,18.93,0,0,1,13.9,7,28.75,28.75,0,0,1,5,9.28c2.47,6.94,3.67,14.82,3.8,24.81a24.45,24.45,0,0,1-1,7.89c-1.7,5.32-4.59,9-8.84,11.21a12.39,12.39,0,0,1-5.91,1.26H347.39q-6.63,0-13.25,0h-.08c-4.74,0-8.55-2-11.65-6.13a21.11,21.11,0,0,1-4.16-13.26,84,84,0,0,1,1.91-19.25c1.23-5.25,2.88-10.76,6.58-15.39a19,19,0,0,1,13.3-7.38,4.89,4.89,0,0,1,.54,0,3.64,3.64,0,0,1,2.59,1.09,33.29,33.29,0,0,0,22.68,8.58,43.3,43.3,0,0,0,4.64-.26,33.09,33.09,0,0,0,19.27-9,1.6,1.6,0,0,1,1.25-.49m0-1a2.61,2.61,0,0,0-1.94.76,32,32,0,0,1-18.69,8.69,41.3,41.3,0,0,1-4.53.26,32.19,32.19,0,0,1-22-8.33,4.64,4.64,0,0,0-3.25-1.34l-.65,0a19.89,19.89,0,0,0-14,7.75c-3.69,4.63-5.45,10.14-6.78,15.8a85.49,85.49,0,0,0-1.93,19.47,22.23,22.23,0,0,0,4.36,13.86c3.12,4.16,7.13,6.53,12.45,6.53h.08q6.63,0,13.25,0h50.83a13.49,13.49,0,0,0,6.37-1.37c4.87-2.54,7.71-6.71,9.33-11.8a25.79,25.79,0,0,0,1-8.2c-.11-8.56-1-17-3.86-25.13a29.89,29.89,0,0,0-5.22-9.6,19.83,19.83,0,0,0-14.61-7.35Z" transform="translate(-124.1 -246.63)"/><path class="cls-4" d="M365.81,479.44c-15.48,0-28.56-13.2-28.56-28.83a29.21,29.21,0,0,1,28.82-28.82,29.06,29.06,0,0,1,28.86,28.86c0,15.61-13.11,28.79-28.56,28.79Z" transform="translate(-124.1 -246.63)"/><path class="cls-4" d="M366.08,422.29a28.28,28.28,0,0,1,20.06,48.29,27.7,27.7,0,0,1-19.77,8.36h-.56A27.67,27.67,0,0,1,346,470.57a28.37,28.37,0,0,1,20-48.28h0m0-1h0a29.54,29.54,0,0,0-29.32,29.32c0,16,13.15,29.33,29.06,29.33h.56c15.89,0,29-13.31,29.06-29.29a29.56,29.56,0,0,0-29.35-29.36Z" transform="translate(-124.1 -246.63)"/><path class="cls-4" d="M312.39,458.92a40.41,40.41,0,0,0,25.7,8.84,50,50,0,0,0,5.42-.3,40.09,40.09,0,0,0,20.77-8.53,9.59,9.59,0,0,1,4.36,3.09,18.87,18.87,0,0,1,3.15,6c2,5.73,3,12.12,3.1,20.74a14.78,14.78,0,0,1-.48,4.65c-1.13,3.53-2.65,4.73-4,5.43A3.46,3.46,0,0,1,369,499H320.49c-4.23,0-8.46,0-12.72,0-1.21,0-2.33-.17-3.88-2.23a11.28,11.28,0,0,1-2.15-7.19,70.27,70.27,0,0,1,1.58-16.31c.93-4,2.13-8.08,4.54-11.11a9.28,9.28,0,0,1,4.53-3.28m49.7-10.42a2.5,2.5,0,0,0-1.85.73,30.54,30.54,0,0,1-17.83,8.29,39.91,39.91,0,0,1-4.32.24,30.68,30.68,0,0,1-21-7.94,4.4,4.4,0,0,0-3.1-1.28l-.62,0A19,19,0,0,0,300.05,456c-3.52,4.42-5.2,9.67-6.47,15.07a81.56,81.56,0,0,0-1.84,18.57,21.19,21.19,0,0,0,4.16,13.22c3,4,6.79,6.22,11.87,6.22h.08q6.31,0,12.64,0H369a12.79,12.79,0,0,0,6.08-1.32c4.64-2.42,7.34-6.39,8.9-11.25a24.48,24.48,0,0,0,.95-7.81c-.1-8.17-.92-16.22-3.68-24a28.31,28.31,0,0,0-5-9.16,18.93,18.93,0,0,0-13.94-7Z" transform="translate(-124.1 -246.63)"/><path class="cls-4" d="M338.31,400.19a18.18,18.18,0,0,1,18,18,18.1,18.1,0,0,1-17.72,17.95h-.53a18,18,0,0,1,.25-35.93h0m0-10h0a28.19,28.19,0,0,0-28,28c0,15.26,12.55,28,27.72,28h.53c15.16,0,27.69-12.7,27.72-27.93a28.18,28.18,0,0,0-28-28Z" transform="translate(-124.1 -246.63)"/></svg>