<svg id="Layer_1" data-name="Layer 1" xmlns="http://www.w3.org/2000/svg" viewBox="0 0 332.67 332.67"><defs><style>.cls-1{fill:none;stroke:#28397e;stroke-miterlimit:10;stroke-width:7px;}.cls-2{fill:#28397e;}</style></defs><circle class="cls-1" cx="166.33" cy="166.33" r="162.83"/><path class="cls-2" d="M257.83,477.91h-1.78q-32.93,0-65.86,0c-5.26,0-9.29-2.14-11.6-6.9a12.53,12.53,0,0,1-1.18-5.29c-.07-28.12-.15-56.23,0-84.35a29.17,29.17,0,0,1,8.74-20.75q25.46-25.67,51.12-51.1A29.15,29.15,0,0,1,258,301c17.25-.17,34.51-.07,51.76,0,7.32,0,12.44,5.18,12.46,12.55,0,13,0,25.93,0,38.89v1.71c2-.93,3.82-1.84,5.69-2.63a28,28,0,0,1,10.95-2.25h51.1c5.21,0,9.24,2.11,11.46,6.87a14.54,14.54,0,0,1,1.22,5.95q.11,56.79.05,113.58,0,19,0,37.95c0,5.21-2.18,9.23-7,11.42a15.13,15.13,0,0,1-6.09,1.18q-49.55.11-99.11.05c-6.75,0-13.5,0-20.25,0a11.89,11.89,0,0,1-12-9,14.73,14.73,0,0,1-.43-4q0-16.89,0-33.79ZM386.5,510.09V365.36H338.29v51.32a12.88,12.88,0,0,1-1.22,6.11c-2.43,4.64-6.31,6.85-11.53,6.84H274v80.46ZM257.82,317v51.33a13.11,13.11,0,0,1-1.2,6.11c-2.4,4.68-6.3,6.88-11.5,6.88H193.53v80.38h64.3V431.32a32.06,32.06,0,0,1,9.75-23.47q18.71-18.75,37.47-37.44a3.46,3.46,0,0,0,1.09-2.7q0-24.81,0-49.61c0-.34,0-.69-.07-1.07Zm-16.17,48.21v-37l-37,37Zm80.5,11.21-37,37h37Z" transform="translate(-131.67 -254.2)"/></svg>