<svg id="Layer_1" data-name="Layer 1" xmlns="http://www.w3.org/2000/svg" viewBox="0 0 556.07 556.07"><defs><style>.cls-1{fill:#273a7e;}.cls-2{fill:#28397e;}</style></defs><path class="cls-1" d="M358.28,181.7a18.23,18.23,0,0,0-2.56,2.93c-3.55,5.37.17,13.84,6.53,14.91a21,21,0,0,0,3.54.28h68.86c7.07,0,11.31-4.24,11.31-11.3,0-23.09-.08-46.18.05-69.27,0-7.47-5.28-10.93-10.43-11.17-3-.14-5.24,1.46-7.26,3.47C422.07,117.79,365.35,174.85,358.28,181.7Z"/><path class="cls-1" d="M278.27,482.94c-112,0-203.07-91.1-203.07-203.07S166.3,76.79,278.27,76.79A203.31,203.31,0,0,1,430.06,145l-41.82,37.19a147.29,147.29,0,0,0-110-49.39c-81.12,0-147.11,66-147.11,147.12S197.15,427,278.27,427a146.11,146.11,0,0,0,122-64.92c1.28-1.9,4.9-5.1,9.61-2.23l36,22a5.84,5.84,0,0,1,2.74,8.55,202.92,202.92,0,0,1-170.42,92.6Z"/><path class="cls-2" d="M278,556.07c-153.3,0-278-124.73-278-278S124.73,0,278,0s278,124.73,278,278S431.34,556.07,278,556.07Zm0-544.88C130.9,11.19,11.19,130.9,11.19,278S130.9,544.88,278,544.88,544.88,425.17,544.88,278,425.17,11.19,278,11.19Z"/><path class="cls-1" d="M270.33,289.81V201.56c0-7.69,2.66-10.33,10.39-10.33h12c7.86,0,10.38,2.51,10.38,10.31V305c0,3,.06,6,0,9-.16,5.43-3.14,8.53-8.56,8.54q-40.6.09-81.2,0c-5.5,0-8.55-3.2-8.64-8.77-.08-4.92-.05-9.85,0-14.78.05-6.18,3.08-9.21,9.3-9.21q26.38,0,52.77,0Z"/></svg>