<svg id="Layer_1" data-name="Layer 1" xmlns="http://www.w3.org/2000/svg" viewBox="0 0 332.67 332.67"><defs><style>.cls-1{fill:#28397e;}.cls-2{fill:none;stroke:#28397e;stroke-miterlimit:10;stroke-width:7px;}</style></defs><path class="cls-1" d="M264.08,420.2a8,8,0,0,1-1.41-.9q-17.64-17.6-35.25-35.21c-3.7-3.69-4.95-8-3.28-13a14.05,14.05,0,0,1,3.25-5c5.33-5.52,10.92-10.8,16.22-16.35a12.49,12.49,0,0,1,17.93.06c11.65,11.83,23.46,23.51,35.19,35.26a14.78,14.78,0,0,1,1,1.24l.6.23a6.36,6.36,0,0,1,.82-1.39q17.59-17.64,35.21-35.25a12.13,12.13,0,0,1,13-3.33,8.83,8.83,0,0,1,3.47,1.92c6.37,6.25,12.77,12.48,18.92,18.94,3.76,3.95,3.71,10.5.35,14.81a23.34,23.34,0,0,1-1.88,2.09q-17.41,17.43-34.86,34.84a13.78,13.78,0,0,1-1.25,1l-.28.63a4.84,4.84,0,0,1,1.32.68q17.64,17.59,35.25,35.21c2.39,2.39,4,5.11,4.1,8.59.08,3.1-.57,6-2.78,8.26-6.23,6.33-12.47,12.66-18.89,18.79-3.65,3.48-10.27,3.52-14.28.46a26.29,26.29,0,0,1-2.52-2.2q-17.43-17.42-34.85-34.85c-.34-.35-.62-.76-1-1.27-.53.5-.91.84-1.27,1.2q-17.58,17.58-35.13,35.15A12.54,12.54,0,0,1,251.14,495a11.72,11.72,0,0,1-7.28-3.58c-5.59-5.59-11.13-11.23-16.79-16.75a12.4,12.4,0,0,1,.4-17.81c11.87-11.68,23.58-23.52,35.35-35.3C263.13,421.2,263.43,420.88,264.08,420.2Z" transform="translate(-131.67 -254.2)"/><circle class="cls-2" cx="166.33" cy="166.33" r="162.83"/></svg>