<svg id="Layer_1" data-name="Layer 1" xmlns="http://www.w3.org/2000/svg" viewBox="0 0 347.96 347.96"><defs><style>.cls-1{fill:#28397e;}.cls-2{fill:none;stroke:#28397e;stroke-miterlimit:10;stroke-width:7px;}</style></defs><path class="cls-1" d="M341.15,413.89h3.12c17.61,0,35.21.11,52.82,0,9.84-.08,14.71,7,15.21,14.45a11.28,11.28,0,0,1-2.59,7.68,27.07,27.07,0,0,1-2.54,2.81q-48.81,48.88-97.6,97.78c-4.54,4.56-9.61,6.73-15.79,4.35a18.92,18.92,0,0,1-6.1-4.3q-42.27-42.17-84.43-84.46c-5-5-10.05-10.06-15-15.17-3.79-3.94-4.46-8.58-2.47-13.59s5.28-8.58,11-9.24a37.73,37.73,0,0,1,4.25-.26H255.8c0-.86.11-1.55.11-2.23q0-47.9,0-95.79c0-9.87,5.91-15.78,15.76-15.79h53.76c9.82,0,15.71,5.95,15.71,15.85q0,47.9,0,95.79Z" transform="translate(-124.02 -246.55)"/><circle class="cls-2" cx="173.98" cy="173.98" r="170.48"/></svg>