<svg id="Layer_1" data-name="Layer 1" xmlns="http://www.w3.org/2000/svg" viewBox="0 0 347.96 347.96"><defs><style>.cls-1{fill:none;stroke:#28397e;stroke-miterlimit:10;stroke-width:7px;}.cls-2{fill:#28397e;}</style></defs><circle class="cls-1" cx="173.98" cy="173.98" r="170.48"/><path class="cls-2" d="M395.28,407.16c-.51-7.59-5.48-14.89-15.51-14.89h-.17q-11.16.09-22.32.08c-10.7,0-21.41,0-32.12,0h-3.22v-2.24q0-49.38,0-98.74c0-10.21-6.07-16.33-16.19-16.34H250.33c-10.16,0-16.25,6.1-16.25,16.27q0,49.38,0,98.74c0,.71-.07,1.41-.11,2.31h-56.5a37.73,37.73,0,0,0-4.38.27c-5.85.68-9.24,4.36-11.29,9.52s-1.36,9.95,2.55,14c5.08,5.28,10.27,10.46,15.44,15.64q43.5,43.58,87,87.07a19.25,19.25,0,0,0,6.29,4.43,14.09,14.09,0,0,0,5.1,1c4.16,0,7.81-2.11,11.17-5.49l5.33-5.34a1.46,1.46,0,0,0,.54-1.37v-20a1.17,1.17,0,0,0-1.83-.64l-1,1-14.38,14.43c-26.76-26.69-53.91-53.89-80.16-80.19l-6.5-6.51-.71-.71c-3.5-3.5-7.08-7.09-10.6-10.68h69.5l.77-15.62c0-.22,0-.43,0-.63,0-.67.09-1.51.09-2.48V291.42h55V408.74h19.65l16,0,16.1,0c7.09,0,13.14,0,18.73,0l-6.7,6.7a1.42,1.42,0,0,0,.08,1.91c.5.51,7.23,5.65,10.65,8.47a2.41,2.41,0,0,0,2,.09L390,418a28.72,28.72,0,0,0,2.61-2.9A11.6,11.6,0,0,0,395.28,407.16Z" transform="translate(-124.02 -246.55)"/><path d="M320.1,483.07V482c0-5.73-.07-11.46.15-17.18a33.2,33.2,0,0,1,7.6-20,38.9,38.9,0,0,1,13.32-10.91,36.09,36.09,0,0,1,17.27-3.45,34.14,34.14,0,0,1,19,6.28c8.26,5.92,13.88,13.65,15.71,23.81a44.87,44.87,0,0,1,.56,7.15c.09,4.76,0,9.53,0,14.3v1h2.42a7.83,7.83,0,0,1,8.09,8.07q0,23.46,0,46.92a7.84,7.84,0,0,1-8.22,8.14H317.76a7.83,7.83,0,0,1-8.18-8.16q0-23.37,0-46.74a7.87,7.87,0,0,1,8.22-8.23Zm15.78-.06H378c0-.21,0-.36,0-.5,0-5.15.05-10.29,0-15.44a23.69,23.69,0,0,0-.61-5,20.17,20.17,0,0,0-6.53-10.55c-5.6-4.94-12.08-6.23-19.22-4.61A21.18,21.18,0,0,0,336,465.15c-.21,3.58-.12,7.19-.15,10.78C335.87,478.27,335.88,480.6,335.88,483Z" transform="translate(-124.02 -246.55)"/></svg>