<svg id="Layer_1" data-name="Layer 1" xmlns="http://www.w3.org/2000/svg" viewBox="0 0 356.86 356.86"><defs><style>.cls-1{fill:#28397e;}.cls-2{fill:none;stroke:#28397e;stroke-miterlimit:10;stroke-width:7px;}</style></defs><path class="cls-1" d="M280.63,329.66l56,56c-.12.14-.38.47-.67.76q-55.2,55.2-110.42,110.38a3.13,3.13,0,0,1-1.94.9q-27.06.07-54.11,0c-.24,0-.48,0-.95-.05v-1.51q0-26.55,0-53.1a3.23,3.23,0,0,1,1.07-2.5q55-55,110-110C280,330.25,280.37,329.91,280.63,329.66ZM185.8,463.3h17.34v17.21c4.72,0,9.31,0,13.91,0a1.69,1.69,0,0,0,1-.48c3.94-3.86,7.86-7.73,11.67-11.49l-31.93-31.93c-3.77,3.84-7.67,7.79-11.55,11.78a1.59,1.59,0,0,0-.4,1C185.8,453.93,185.8,458.48,185.8,463.3ZM288.39,355.39l-.35-.24a2.47,2.47,0,0,0-2.71-2.78,4.19,4.19,0,0,0-3.23,1.6l-71.7,71.7c-.44.44-1.06.91-1.14,1.44a8.06,8.06,0,0,0,.06,3.39,2,2,0,0,0,2.68,1,7.3,7.3,0,0,0,2.87-1.71q20-19.92,40-39.94,15.76-15.76,31.51-31.55A19.88,19.88,0,0,0,288.39,355.39Z" transform="translate(-119.57 -242.1)"/><path class="cls-1" d="M345.72,376.61l-56-56c.14-.16.44-.51.76-.83q10.56-10.5,21.12-21c5.64-5.57,12.59-7,19.64-3.71a19.9,19.9,0,0,1,5.43,3.92q15.45,15.18,30.72,30.52c5.57,5.56,7.15,13.09,4,19.92a18.8,18.8,0,0,1-3.61,5.14c-7.11,7.26-14.34,14.41-21.53,21.59C346.05,376.36,345.82,376.52,345.72,376.61Z" transform="translate(-119.57 -242.1)"/><path d="M369.31,431.22c-.05.22-.13.61-.24,1q-10.65,36.93-21.31,73.88-4.68,16.21-9.37,32.43a2.74,2.74,0,0,1-1.85,2.23,4.22,4.22,0,0,1-1.87,0c-1.48-.35-2.94-.8-4.41-1.21a2.72,2.72,0,0,1-2.12-3.77q6.27-21.72,12.55-43.43,9.09-31.44,18.19-62.89a4,4,0,0,1,.83-1.62,2.31,2.31,0,0,1,2.37-.69c1.75.48,3.5.93,5.24,1.45A2.74,2.74,0,0,1,369.31,431.22Z" transform="translate(-119.57 -242.1)"/><path d="M409.78,483.85a4.22,4.22,0,0,1-.68-.45q-15.83-15.81-31.62-31.64a4.6,4.6,0,0,1-1.11-1.69,2.41,2.41,0,0,1,.81-2.57c1.24-1.23,2.46-2.48,3.69-3.72,1.57-1.58,2.95-1.59,4.52,0l15.06,15.06,22.95,23a2.67,2.67,0,0,1,1,2.83,4.09,4.09,0,0,1-.92,1.5q-19.11,19.14-38.24,38.26a2.66,2.66,0,0,1-4.23,0c-1.24-1.23-2.47-2.48-3.7-3.72-1.45-1.46-1.46-2.8,0-4.26L393.71,500l15.67-15.69C409.47,484.22,409.55,484.12,409.78,483.85Z" transform="translate(-119.57 -242.1)"/><path d="M287.28,484a12.29,12.29,0,0,1,1.07.87q15,15,29.95,29.94c.55.55,1.11,1.08,1.65,1.63a2.66,2.66,0,0,1,0,4.19q-1.82,1.85-3.65,3.67c-1.52,1.53-2.9,1.53-4.42,0L284.63,497c-3.6-3.6-7.21-7.18-10.78-10.81a4.25,4.25,0,0,1-1-1.64,2.63,2.63,0,0,1,1-2.72l12.12-12.11,25.9-25.9a6.3,6.3,0,0,1,1-.85,2.45,2.45,0,0,1,3.16.44c1.44,1.37,2.85,2.79,4.21,4.24a2.49,2.49,0,0,1,.08,3.59,7.08,7.08,0,0,1-.59.63L288.12,483.4A6.63,6.63,0,0,1,287.28,484Z" transform="translate(-119.57 -242.1)"/><circle class="cls-2" cx="178.43" cy="178.43" r="174.93"/></svg>