<svg id="Layer_1" data-name="Layer 1" xmlns="http://www.w3.org/2000/svg" viewBox="0 0 347.8 347.8"><defs><style>.cls-1{fill:none;stroke:#28397e;stroke-linecap:round;stroke-linejoin:round;stroke-width:7px;}.cls-2{fill:#28397e;}.cls-3{fill:#e8346f;}</style></defs><circle class="cls-1" cx="173.9" cy="173.9" r="170.4"/><path class="cls-2" d="M333.39,519.51H215.53v-202H316.47V319q0,26.24,0,52.48a12.7,12.7,0,0,0,7.2,12.06,13.4,13.4,0,0,0,6.39,1.25h53.69v8.3h16.89q0-10.1,0-20.21a31.74,31.74,0,0,0-9.4-22.76q-20-20.33-40.32-40.25a31.33,31.33,0,0,0-22.41-9.22q-58.31-.12-116.61,0a16.92,16.92,0,0,0-3.88.44,12.91,12.91,0,0,0-9.46,12.84c.1,34.8.05,69.6.05,104.4s0,69.78,0,104.68c0,8,5.33,13.35,13.37,13.35H333.39m0-217.73A12,12,0,0,1,339,321.7q20.3,20.25,40.51,40.58c1.46,1.47,2.3,3.54,3.43,5.33l-.42.33H333.39Z" transform="translate(-124.1 -246.63)"/><path class="cls-3" d="M354.74,498.36v1.95c0,11,.06,22,0,33,0,6.15,4.4,9.2,9,9.51a7.08,7.08,0,0,0,4.81-1.62,18.74,18.74,0,0,0,1.75-1.59q30.56-30.5,61.11-61c2.85-2.84,4.21-6,2.72-9.87a11.83,11.83,0,0,0-2.68-3.81q-26.35-26.43-52.8-52.78c-3.14-3.13-6.28-6.28-9.48-9.36a7.45,7.45,0,0,0-8.49-1.55c-3.13,1.25-5.36,3.3-5.77,6.85a21.43,21.43,0,0,0-.17,2.65q0,16.22,0,32.42V445c-.54,0-1,.07-1.4.07H293.47c-6.17,0-9.86,3.7-9.87,9.86v33.6c0,6.14,3.72,9.82,9.91,9.82h61.23Z" transform="translate(-124.1 -246.63)"/><line class="cls-1" x1="120.41" y1="101.64" x2="164.56" y2="101.64"/><line class="cls-1" x1="120.52" y1="136.07" x2="164.68" y2="136.07"/><line class="cls-1" x1="120.41" y1="170.51" x2="198.59" y2="170.51"/></svg>