<svg id="Layer_1" data-name="Layer 1" xmlns="http://www.w3.org/2000/svg" viewBox="0 0 347.8 347.8"><defs><style>.cls-1,.cls-2{fill:none;}.cls-1{stroke:#28397e;stroke-miterlimit:10;stroke-width:7px;}.cls-2{stroke:#010101;stroke-linecap:round;stroke-linejoin:round;stroke-width:10px;}.cls-3{fill:#28397e;}</style></defs><circle class="cls-1" cx="173.9" cy="173.9" r="170.4"/><line class="cls-2" x1="162.41" y1="279.21" x2="283.6" y2="279.21"/><path d="M364.25,473.31h37.69c6.5,0,11.2,4.26,11.6,10.74a80.08,80.08,0,0,1,0,10c-.38,6.35-5,10.61-11.32,10.8H297.05c-6.07,0-10.58-3.32-11.8-8.81a20.41,20.41,0,0,1-.3-4.14c0-2.78-.09-5.57.1-8.34a11,11,0,0,1,11.1-10.29h38.18c0-.48.06-.86.06-1.24,0-6.43,0-12.87,0-19.3a1.66,1.66,0,0,0-.91-1.65,30.94,30.94,0,0,1,9.26-56.89c17.13-3.86,34.53,8.07,37.07,25.41A30.94,30.94,0,0,1,365,451.2a1.77,1.77,0,0,0-.83,1.24c-.05,6.74,0,13.48,0,20.22C364.16,472.82,364.21,473,364.25,473.31Z" transform="translate(-124.1 -246.63)"/><path class="cls-3" d="M205.25,368.66a22.83,22.83,0,1,1,22,23.62A22.8,22.8,0,0,1,205.25,368.66Z" transform="translate(-124.1 -246.63)"/><path class="cls-3" d="M403.25,433.24q0-48.56,0-97.11a19.4,19.4,0,0,0-3.83-12.35c-4.18-5.38-9.74-7.66-16.48-7.65q-47,.08-93.94,0H194.55c-7.67,0-13.5,3.27-17.42,9.86a19.46,19.46,0,0,0-2.38,10.25q0,70.07,0,140.15c0,1.85.05,3.72.21,5.57.53,6,3.59,10.44,8.4,13.81,3.43,2.4,7.34,3.14,11.44,3.14h80.06c1.25,0,1.83-.52,1.83-1.73v-12c0-.95-.71-1.47-1.91-1.47q-40.05,0-80.09,0c-1.55,0-3.07-.16-3.88-1.61A6.53,6.53,0,0,1,190,479q-.07-29.13,0-58.26V336.12c0-3.41,1.34-4.76,4.77-4.76H383.23c3.45,0,4.8,1.33,4.8,4.73,0,42.27,0,125,0,126.8s1,2.29,1.89,2.29h11.15a1.91,1.91,0,0,0,2.19-2.06C403.24,461.73,403.25,443.2,403.25,433.24Z" transform="translate(-124.1 -246.63)"/><path class="cls-3" d="M338,385.53a37,37,0,0,1,4.38-.72l-18.07-18.09c-.32-.32-.66-.62-1.15-1.08l-61.1,61.11-18.95-19c-.08.07-.22.17-.34.29q-18.49,18.48-36.95,37a2.43,2.43,0,0,0-.6,1.55c0,4.44,0,8.89,0,13.33v5.49h119.2v-5.09c0-2.87-.28-3.36-3.14-6.23a39,39,0,0,1-13.7-36.94C310.1,401.64,322.16,389.1,338,385.53Z" transform="translate(-124.1 -246.63)"/></svg>