<svg id="Layer_1" data-name="Layer 1" xmlns="http://www.w3.org/2000/svg" viewBox="0 0 347.8 347.8"><defs><style>.cls-1,.cls-2{fill:none;stroke:#28397e;stroke-width:7px;}.cls-1{stroke-miterlimit:10;}.cls-2{stroke-linecap:round;stroke-linejoin:round;}.cls-3{fill:#28397e;}.cls-4{fill:#010101;}</style></defs><circle class="cls-1" cx="173.9" cy="173.9" r="170.4"/><line class="cls-2" x1="113.45" y1="97.12" x2="158.45" y2="97.12"/><line class="cls-2" x1="113.56" y1="132.22" x2="158.56" y2="132.22"/><path class="cls-3" d="M213,515.54v-202H314V315q0,26.23,0,52.48c0,5.46,2.34,9.51,7.19,12.06a13.41,13.41,0,0,0,6.4,1.25h53.68v8.67h16.9c0-6.86,0-13.71,0-20.57a31.75,31.75,0,0,0-9.41-22.77q-20-20.31-40.32-40.25A31.29,31.29,0,0,0,326,296.7q-58.31-.13-116.61,0a16.78,16.78,0,0,0-3.88.43A12.92,12.92,0,0,0,196.06,310c.1,34.8,0,69.6,0,104.4s0,69.79,0,104.68c0,8,5.33,13.36,13.37,13.36h60.15V515.54ZM330.9,314.65a12.1,12.1,0,0,1,5.63,3.08q20.3,20.25,40.52,40.59c1.45,1.47,2.29,3.53,3.42,5.32l-.41.33H330.9Z" transform="translate(-124.1 -246.63)"/><path class="cls-4" d="M309.26,433.34c4.82,4.64,9.56,9.19,14.27,13.75a11.73,11.73,0,0,1,1.71,2c2.37,3.58-.11,9.23-4.35,9.94a14.48,14.48,0,0,1-2.37.19H272.6c-4.71,0-7.54-2.82-7.54-7.53,0-15.4.06-30.8,0-46.2a7,7,0,0,1,7-7.44c2-.1,3.49,1,4.84,2.31,4.16,4.16,8.35,8.3,12.51,12.45a9,9,0,0,1,.84,1.18c1-.87,1.78-1.52,2.53-2.19a81.5,81.5,0,0,1,114.77,7.05,81.88,81.88,0,0,1,11.95,17.94,81,81,0,0,1,7.75,25.07,77.66,77.66,0,0,1,.24,19.86,79.94,79.94,0,0,1-5.55,21.73,81.31,81.31,0,0,1-84.71,50.33,80.67,80.67,0,0,1-53-28.53,3.52,3.52,0,0,1,.2-5.09q7-7.1,14-14.15a3.44,3.44,0,0,1,5.5.29,54.37,54.37,0,0,0,17.25,14.56,54.3,54.3,0,0,0,71.28-77.05c-7.74-12.29-18.85-20.13-32.81-23.72a53.73,53.73,0,0,0-50.3,13.29Z" transform="translate(-124.1 -246.63)"/><path class="cls-4" d="M346.51,479.59V443.1c0-3.19,1.1-4.27,4.3-4.28h5c3.25,0,4.3,1,4.3,4.27v42.79c0,1.24,0,2.49,0,3.73-.07,2.25-1.3,3.53-3.54,3.54q-16.8,0-33.59,0c-2.27,0-3.53-1.32-3.57-3.63,0-2,0-4.07,0-6.11,0-2.56,1.28-3.81,3.85-3.81h23.3Z" transform="translate(-124.1 -246.63)"/></svg>