<svg id="Layer_1" data-name="Layer 1" xmlns="http://www.w3.org/2000/svg" viewBox="0 0 323.33 323.33"><defs><style>.cls-1{fill:#28397e;}.cls-2{fill:none;stroke:#28397e;stroke-miterlimit:10;stroke-width:7px;}</style></defs><path class="cls-1" d="M317.94,347.61h68.62c3.11,0,4.25,1.15,4.25,4.27q0,9.11,0,18.23c0,2.71-1.27,4-4,4H249c-2.71,0-4-1.28-4-4q0-9.27,0-18.56c0-2.67,1.26-3.93,3.91-3.93Z" transform="translate(-136.34 -258.87)"/><path class="cls-1" d="M317.78,413.89H249.16c-3,0-4.19-1.2-4.19-4.22q0-9.18,0-18.35c0-2.66,1.26-3.93,3.92-3.93h138c2.66,0,3.92,1.28,3.92,3.94q0,9.29,0,18.56c0,2.72-1.27,4-4,4Z" transform="translate(-136.34 -258.87)"/><path class="cls-1" d="M317.89,427.17h68.84c2.88,0,4.08,1.21,4.08,4.1q0,9.23,0,18.45c0,2.65-1.29,3.95-3.92,3.95h-138c-2.63,0-3.92-1.3-3.92-3.95V431.16c0-2.74,1.24-4,4-4Z" transform="translate(-136.34 -258.87)"/><path class="cls-1" d="M317.89,493.45H249.16c-3,0-4.19-1.2-4.19-4.22V470.77c0-2.51,1.29-3.82,3.8-3.82H387c2.51,0,3.81,1.31,3.81,3.82q0,9.28,0,18.56c0,2.87-1.23,4.12-4.08,4.12Z" transform="translate(-136.34 -258.87)"/><path class="cls-1" d="M218.44,387.39h9.5c2.44,0,3.75,1.33,3.75,3.77q0,9.51,0,19a3.4,3.4,0,0,1-3.69,3.72H208.88a3.4,3.4,0,0,1-3.69-3.73q0-9.5,0-19c0-2.44,1.32-3.76,3.75-3.76Z" transform="translate(-136.34 -258.87)"/><path class="cls-1" d="M231.7,360.92v9.39c0,2.47-1.35,3.8-3.84,3.8H209a3.4,3.4,0,0,1-3.77-3.76q0-9.5,0-19c0-2.42,1.34-3.73,3.78-3.73h19a3.36,3.36,0,0,1,3.72,3.68C231.71,354.51,231.7,357.71,231.7,360.92Z" transform="translate(-136.34 -258.87)"/><path class="cls-1" d="M218.46,427.17h9.39c2.56,0,3.84,1.3,3.85,3.9v18.78c0,2.49-1.34,3.82-3.83,3.82H209c-2.43,0-3.78-1.34-3.79-3.74q0-9.51,0-19c0-2.43,1.33-3.74,3.77-3.75Z" transform="translate(-136.34 -258.87)"/><path class="cls-1" d="M218.51,467H228a3.36,3.36,0,0,1,3.68,3.72q0,9.51,0,19a3.42,3.42,0,0,1-3.76,3.77h-19a3.4,3.4,0,0,1-3.74-3.68q0-9.61,0-19.23a3.33,3.33,0,0,1,3.59-3.58C212,466.94,215.26,467,218.51,467Z" transform="translate(-136.34 -258.87)"/><circle class="cls-2" cx="161.66" cy="161.66" r="158.16"/></svg>