<svg id="Layer_1" data-name="Layer 1" xmlns="http://www.w3.org/2000/svg" viewBox="0 0 338.87 338.87"><defs><style>.cls-1{fill:#28397e;}.cls-2{fill:none;stroke:#28397e;stroke-miterlimit:10;stroke-width:7px;}</style></defs><path class="cls-1" d="M396.49,394.65q0-10.2,0-20.39a30.89,30.89,0,0,0-9.16-22.17q-19.44-19.79-39.26-39.19a30.5,30.5,0,0,0-21.82-9q-56.78-.12-113.55,0a16.54,16.54,0,0,0-3.78.43,12.57,12.57,0,0,0-9.21,12.5c.1,33.89,0,67.78,0,101.66s0,68,0,101.94c0,7.82,5.19,13,13,13q25.42,0,50.84,0s13.94-14.51,14.72-15.29.5-1.07-.42-1.11H216.24V320.36h98.29v1.43q0,25.54,0,51.1a12.34,12.34,0,0,0,7,11.74,13,13,0,0,0,6.23,1.22H380v8.8Zm-17.61-25.21H331v-48a11.74,11.74,0,0,1,5.48,3q19.77,19.71,39.46,39.52c1.41,1.43,2.23,3.44,3.33,5.19Z" transform="translate(-128.57 -251.1)"/><circle class="cls-2" cx="169.43" cy="169.43" r="165.93"/><path d="M292.66,550.93l-3.05,2.91c-2.07,2.08-3.23,2.29-5.15.38l-10.35-10.39a3.16,3.16,0,0,1,.09-4.93L353.65,459c1.55-1.54,2-2.63,1.05-4.91-6.09-14.66-4.58-28.6,5.93-40.64s24.06-16,39.38-11.68c15.48,4.41,24.87,15.17,27.34,31,2.25,14.39-2.55,26.75-14.09,35.81-11.75,9.23-24.94,10.66-38.71,5-2.6-1.07-4-.71-5.82,1.17l-37.16,37.69,12.36,12.38c2,2,2.2,3.63,0,5.81-1.94,1.93-7.08,7.55-9.07,9.43-2.85,2.69-4.05,2.33-6.89-.43-3.68-3.58-8.42-8.27-12.16-12l-7.8,7.79c2.88,2.85,12.41,12.53,12.41,12.53,2.32,2.32,2.59,3.68.8,5.47s-7.5,7.82-9.44,9.76-3.82,3.12-7.07-.13S295.27,553.59,292.66,550.93ZM405.87,438.62a16.36,16.36,0,0,0-16.14-16.52A16.61,16.61,0,0,0,373,438.52a16.43,16.43,0,0,0,16.26,16.42A16.12,16.12,0,0,0,405.87,438.62Z" transform="translate(-128.57 -251.1)"/></svg>