<svg id="Layer_1" data-name="Layer 1" xmlns="http://www.w3.org/2000/svg" viewBox="0 0 347.8 347.8"><defs><style>.cls-1{fill:none;stroke-miterlimit:10;}.cls-1,.cls-3{stroke:#28397e;stroke-width:7px;}.cls-2,.cls-3{fill:#28397e;}.cls-3{stroke-linecap:round;stroke-linejoin:round;}.cls-4{fill:#010101;}</style></defs><circle class="cls-1" cx="173.9" cy="173.9" r="170.4"/><path class="cls-2" d="M223.53,518.51v-202H324.47V318q0,26.24,0,52.48a12.7,12.7,0,0,0,7.2,12.06,13.4,13.4,0,0,0,6.39,1.25h53.69v9.32h16.89q0-10.62,0-21.23a31.71,31.71,0,0,0-9.41-22.76q-19.95-20.33-40.31-40.25a31.33,31.33,0,0,0-22.41-9.22q-58.31-.12-116.6,0a16.94,16.94,0,0,0-3.89.44,12.91,12.91,0,0,0-9.46,12.84c.1,34.8.05,69.6.05,104.4s0,69.78,0,104.68c0,8,5.33,13.35,13.37,13.35h45.22V518.51ZM341.39,317.62A12,12,0,0,1,347,320.7q20.3,20.25,40.51,40.58c1.46,1.47,2.3,3.54,3.43,5.33l-.42.33H341.39Z" transform="translate(-124.1 -246.63)"/><line class="cls-3" x1="128.5" y1="205.08" x2="193.92" y2="204.65"/><line class="cls-3" x1="128.5" y1="135.07" x2="173.5" y2="135.07"/><line class="cls-3" x1="128.5" y1="170.07" x2="220.92" y2="169.64"/><line class="cls-3" x1="128.5" y1="100.07" x2="173.5" y2="100.07"/><path class="cls-4" d="M364.55,431l45.25,45.25c-.1.11-.3.38-.54.61q-44.6,44.6-89.2,89.17a2.5,2.5,0,0,1-1.57.73q-21.86.06-43.71,0c-.2,0-.39,0-.77,0v-1.22q0-21.45,0-42.89a2.6,2.6,0,0,1,.86-2l88.88-88.85C364,431.52,364.33,431.24,364.55,431ZM287.94,539h14v13.9c3.81,0,7.52,0,11.23,0a1.26,1.26,0,0,0,.79-.38l9.43-9.28-25.79-25.8c-3.05,3.1-6.2,6.3-9.33,9.52a1.27,1.27,0,0,0-.32.81C287.94,531.43,287.94,535.1,287.94,539Zm82.87-87.18-.28-.18a2,2,0,0,0-2.19-2.25,3.4,3.4,0,0,0-2.61,1.29L307.81,508.6c-.35.36-.86.74-.92,1.16a6.52,6.52,0,0,0,.05,2.75,1.61,1.61,0,0,0,2.17.83,5.78,5.78,0,0,0,2.31-1.37q16.2-16.11,32.31-32.27,12.75-12.74,25.46-25.49A14.33,14.33,0,0,0,370.81,451.82Z" transform="translate(-124.1 -246.63)"/><path class="cls-4" d="M417.13,469l-45.25-45.25c.12-.13.35-.41.61-.67,5.69-5.65,11.36-11.32,17.07-16.95,4.55-4.5,10.16-5.63,15.86-3a15.86,15.86,0,0,1,4.39,3.17c8.32,8.17,16.56,16.41,24.82,24.65,4.5,4.49,5.77,10.58,3.23,16.1a15.12,15.12,0,0,1-2.91,4.14c-5.75,5.87-11.59,11.64-17.4,17.45C417.39,468.77,417.21,468.9,417.13,469Z" transform="translate(-124.1 -246.63)"/></svg>