<svg id="Layer_1" data-name="Layer 1" xmlns="http://www.w3.org/2000/svg" viewBox="0 0 347.8 347.8"><defs><style>.cls-1{fill:none;stroke:#28397e;stroke-linecap:round;stroke-linejoin:round;stroke-width:7px;}.cls-2{fill:#28397e;}.cls-3{fill:#e8346f;}</style></defs><circle class="cls-1" cx="173.9" cy="173.9" r="170.4"/><path class="cls-2" d="M381.74,509.36v9.15H213.53v-202H314.47V318q0,26.24,0,52.48a12.7,12.7,0,0,0,7.2,12.06,13.4,13.4,0,0,0,6.39,1.25h53.69v8.3h16.89q0-10.1,0-20.21a31.74,31.74,0,0,0-9.4-22.76q-20-20.33-40.32-40.25a31.33,31.33,0,0,0-22.41-9.22q-58.31-.12-116.61,0a16.92,16.92,0,0,0-3.88.44,12.91,12.91,0,0,0-9.46,12.84c.1,34.8.05,69.6.05,104.4s0,69.78,0,104.68c0,8,5.33,13.35,13.37,13.35q87.63,0,175.26,0a15.11,15.11,0,0,0,4-.45c5.95-1.62,9.4-6.44,9.4-13V509.36ZM331.39,317.62A12,12,0,0,1,337,320.7q20.3,20.25,40.51,40.58c1.46,1.47,2.3,3.54,3.43,5.33l-.42.33H331.39Z" transform="translate(-124.1 -246.63)"/><line class="cls-1" x1="118.5" y1="135.07" x2="163.5" y2="135.07"/><line class="cls-1" x1="118.5" y1="100.07" x2="163.5" y2="100.07"/><path class="cls-3" d="M345.13,405.07h1.65c7.49,0,15,0,22.46,0q28.54-.07,57.07-.13a11.05,11.05,0,0,1,4.25.72c2.64,1.13,3.7,3.41,3.71,6.17,0,4,0,8,0,11.93,0,22-.07,44,.05,66a7.28,7.28,0,0,1-7.63,7.56q-40-.1-80,0c-1.31,0-1.65-.38-1.65-1.64q.06-44.52.05-89Zm55.8,58.32.95-1.1A54,54,0,0,0,412.46,446c1.07-2.71,1.07-2.71,4.05-2.8a3.63,3.63,0,0,0,3.82-3.76c0-1.11,0-2.22,0-3.33,0-3.4-1.24-4.59-4.67-4.58-5.41,0-10.83,0-16.24,0-1.13,0-1.52-.33-1.43-1.42a26.12,26.12,0,0,0,0-3.19,3.42,3.42,0,0,0-3.39-3.41c-1.69-.08-3.39-.08-5.08,0a3.45,3.45,0,0,0-3.4,3.41,18.85,18.85,0,0,0,0,2.91c.14,1.34-.35,1.74-1.72,1.72-5.51-.07-11,0-16.53,0-2.69,0-4.07,1.39-4.09,4v3.33c0,3,1.41,4.31,4.41,4.31h30.94c.49,0,1,0,1.51.06-1,3.21-6.29,10.61-8.76,12.09-1.54-1.87-3.12-3.75-4.66-5.66-1.31-1.61-3-2.13-4.72-1.24A41,41,0,0,0,378,451.1a3.23,3.23,0,0,0-1,4.53,10.86,10.86,0,0,0,1.12,1.59c1.63,2,3.28,4,5,6.09-.37.31-.67.6-1,.83-2,1.34-3.95,2.69-5.95,4-2.39,1.55-2.84,3.23-1.44,5.64.61,1,1.2,2.1,1.83,3.13,1.33,2.16,3.34,2.7,5.51,1.3,3-1.95,6-4,8.93-6.08a1.54,1.54,0,0,1,2.18,0c3,2.12,6,4.19,9.06,6.15,2.1,1.35,4.09.77,5.39-1.36.7-1.15,1.38-2.31,2-3.5a5.11,5.11,0,0,0,.54-1.55,3.51,3.51,0,0,0-1.91-3.58C405.86,466.7,403.47,465.08,400.93,463.39Z" transform="translate(-124.1 -246.63)"/><path class="cls-3" d="M335.55,451.29q0,22.11,0,44.22c0,1.79,0,1.79-1.86,1.79H254.32c-5.34,0-7.94-2.58-7.94-7.85V412.5c0-4.6,2.82-7.41,7.58-7.42q22.39,0,44.77,0c11.68,0,23.35,0,35,0,1.37,0,1.85.27,1.84,1.73-.06,14.84,0,29.67,0,44.51Zm-47-28.15v0c-1.36,0-2.73,0-4.09,0-2.5,0-3.49.74-4.27,3q-8.28,23.88-16.55,47.74c-1,2.72.62,5,3.56,5,2.06.05,4.14.05,6.21,0a3.57,3.57,0,0,0,3.77-2.9c.77-2.57,1.53-5.14,2.25-7.73a1.29,1.29,0,0,1,1.48-1.1q7.62.06,15.25,0a1.38,1.38,0,0,1,1.57,1.19c.66,2.45,1.41,4.89,2.15,7.32s1.82,3.21,4.4,3.24c1.74,0,3.48,0,5.23,0,3.51,0,5.05-2.12,3.93-5.38-2-5.91-4.1-11.81-6.14-17.71L297,426.1a3.77,3.77,0,0,0-4.05-3C291.49,423.11,290,423.14,288.57,423.14Z" transform="translate(-124.1 -246.63)"/><path class="cls-3" d="M288.62,436.75q2.61,9.5,5.34,19.43H283.22C285.05,449.61,286.86,443.09,288.62,436.75Z" transform="translate(-124.1 -246.63)"/></svg>