<svg id="Layer_1" data-name="Layer 1" xmlns="http://www.w3.org/2000/svg" viewBox="0 0 347.8 347.8"><defs><style>.cls-1,.cls-3,.cls-5{fill:none;}.cls-1,.cls-3{stroke:#28397e;stroke-width:7px;}.cls-1{stroke-miterlimit:10;}.cls-2{fill:#28397e;}.cls-3,.cls-5{stroke-linecap:round;stroke-linejoin:round;}.cls-4{fill:#e8346f;}.cls-5{stroke:#e8346f;stroke-width:10px;}</style></defs><circle class="cls-1" cx="173.9" cy="173.9" r="170.4"/><path class="cls-2" d="M209.61,514.94V316.77h99V369.7a12.41,12.41,0,0,0,7.05,11.83,13.09,13.09,0,0,0,6.28,1.23h52.67v9.67h16.58q0-10.67,0-21.35A31.15,31.15,0,0,0,382,348.74q-19.59-19.94-39.56-39.49a30.7,30.7,0,0,0-22-9q-57.21-.12-114.42,0a16.31,16.31,0,0,0-3.81.43,12.67,12.67,0,0,0-9.28,12.6c.1,34.14.05,68.29.05,102.43s0,68.47,0,102.71c0,7.88,5.23,13.1,13.12,13.11h54V514.94ZM325.25,317.83a11.77,11.77,0,0,1,5.52,3q19.92,19.86,39.76,39.82c1.42,1.44,2.25,3.47,3.36,5.23l-.41.32H325.25Z" transform="translate(-124.1 -246.63)"/><line class="cls-3" x1="114.04" y1="99.73" x2="158.19" y2="99.73"/><path class="cls-4" d="M358.4,480.7h40.77c7,0,12.12,4.61,12.55,11.62a87.45,87.45,0,0,1,0,10.86c-.42,6.88-5.36,11.48-12.25,11.69H285.68c-6.57,0-11.44-3.6-12.76-9.53a21.61,21.61,0,0,1-.33-4.48c0-3-.1-6,.11-9a11.91,11.91,0,0,1,12-11.12q19.69,0,39.39,0H326c0-.52.07-.93.07-1.34,0-7,0-13.92,0-20.89a1.76,1.76,0,0,0-1-1.77,33.47,33.47,0,0,1,10-61.55c18.53-4.18,37.36,8.72,40.1,27.49a33.43,33.43,0,0,1-16,34.14,2,2,0,0,0-.89,1.34c-.06,7.29,0,14.58,0,21.88A4.71,4.71,0,0,0,358.4,480.7Z" transform="translate(-124.1 -246.63)"/><line class="cls-5" x1="154.28" y1="288.31" x2="281.71" y2="288.31"/><line class="cls-3" x1="114.15" y1="202.86" x2="175.93" y2="202.68"/><line class="cls-3" x1="114.15" y1="134.17" x2="158.3" y2="134.17"/><line class="cls-3" x1="114.15" y1="168.52" x2="175.93" y2="168.34"/></svg>