<svg id="Layer_1" data-name="Layer 1" xmlns="http://www.w3.org/2000/svg" viewBox="0 0 347.8 347.8"><defs><style>.cls-1{fill:none;stroke:#28397e;stroke-linecap:round;stroke-linejoin:round;stroke-width:7px;}.cls-2{fill:#28397e;}.cls-3{fill:#010101;}</style></defs><circle class="cls-1" cx="173.9" cy="173.9" r="170.4"/><path class="cls-2" d="M375.74,510.36v9.15H207.53v-202H308.47V319q0,26.24,0,52.48a12.7,12.7,0,0,0,7.2,12.06,13.4,13.4,0,0,0,6.39,1.25h53.69v8.3h16.89q0-10.1,0-20.21a31.74,31.74,0,0,0-9.4-22.76q-20-20.33-40.32-40.25a31.33,31.33,0,0,0-22.41-9.22q-58.31-.12-116.61,0a16.92,16.92,0,0,0-3.88.44,12.91,12.91,0,0,0-9.46,12.84c.1,34.8.05,69.6.05,104.4s0,69.78,0,104.68c0,8,5.33,13.35,13.37,13.35q87.63,0,175.26,0a15.11,15.11,0,0,0,4-.45c5.95-1.62,9.4-6.44,9.4-13V510.36ZM325.39,318.62A12,12,0,0,1,331,321.7q20.3,20.25,40.51,40.58c1.46,1.47,2.3,3.54,3.43,5.33l-.42.33H325.39Z" transform="translate(-124.1 -246.63)"/><line class="cls-1" x1="112.5" y1="136.07" x2="157.5" y2="136.07"/><line class="cls-1" x1="112.5" y1="101.07" x2="157.5" y2="101.07"/><path class="cls-3" d="M429.69,497.83q-19.57,0-39.15,0l-40.81,0a1.46,1.46,0,0,1-1-.2c-.13-.13-.19-.43-.19-.94q.06-37.24.05-74.49V406.57h23.62l17.87-.05q19.59-.06,39.19-.07a10.34,10.34,0,0,1,4.05.67c2.25,1,3.4,2.88,3.41,5.72v7.94s0,15.36,0,21.06c0,16,0,32.62.07,48.93a7,7,0,0,1-1.95,5,7.18,7.18,0,0,1-5.16,2Zm-34.6-24.67a1.45,1.45,0,0,1,.8.36c3.35,2.39,6.32,4.4,9.08,6.16a4.63,4.63,0,0,0,2.49.8,4.26,4.26,0,0,0,3.59-2.32c.8-1.3,1.46-2.45,2-3.52a5.25,5.25,0,0,0,.59-1.72,4,4,0,0,0-2.13-4.07c-1.7-1.11-3.39-2.24-5.13-3.4l-1.75-1.16.07-.07c.21-.25.36-.43.52-.6,5.12-5.7,8.51-10.92,10.67-16.43.94-2.4.94-2.4,3.58-2.48a4.14,4.14,0,0,0,4.32-4.25c0-.8,0-1.61,0-2.41v-.93c0-3.66-1.44-5.08-5.12-5.08H408.45l-6,0h0c-.56,0-.75-.09-.82-.16a1.05,1.05,0,0,1-.1-.72,27.05,27.05,0,0,0,0-3.25,3.9,3.9,0,0,0-3.86-3.89c-.87,0-1.73-.06-2.6-.06s-1.69,0-2.53,0a4,4,0,0,0-3.88,3.89,18.53,18.53,0,0,0,0,3,1.31,1.31,0,0,1-.13.94c-.14.16-.47.23-1,.23-2.63,0-5.2,0-7.76,0h-8.85c-2.94,0-4.57,1.62-4.59,4.53v3.33c0,3.24,1.61,4.81,4.91,4.81h30.94l.82,0c-1.28,3.2-5.65,9.23-8,11l-1.06-1.27c-1.1-1.33-2.22-2.67-3.31-4a4.43,4.43,0,0,0-3.42-1.86,4.26,4.26,0,0,0-1.92.48,43.45,43.45,0,0,0-4.53,2.66,3.74,3.74,0,0,0-1.18,5.19,12.57,12.57,0,0,0,1.17,1.67l3.58,4.38,1.1,1.33a6.13,6.13,0,0,1-.58.48l-.81.55c-1.7,1.15-3.41,2.31-5.13,3.43-2.64,1.72-3.14,3.66-1.6,6.31l.54.94c.42.73.85,1.47,1.29,2.2a4.26,4.26,0,0,0,3.61,2.32,4.79,4.79,0,0,0,2.6-.86c2.83-1.83,5.76-3.82,9-6.1A1.45,1.45,0,0,1,395.09,473.16Z" transform="translate(-124.1 -246.63)"/><path class="cls-3" d="M429.32,407a9.85,9.85,0,0,1,3.84.64c2.08.89,3.1,2.61,3.11,5.26v11.92q0,8.53,0,17.07c0,16,0,32.63.06,49a6.47,6.47,0,0,1-1.8,4.68,6.69,6.69,0,0,1-4.82,1.87c-12.13,0-25,0-39.3,0l-40.67,0a1.65,1.65,0,0,1-.59-.06,1.92,1.92,0,0,1-.06-.58c0-25.08,0-50.57.05-75.23V407.07h23.12l17.88-.05c12.84,0,26.12-.07,39.18-.08h0m-41.17,24.53a1.66,1.66,0,0,1-.66.08h-.07c-2.31,0-4.76,0-7.73,0h-8.81c-3.21,0-5.07,1.84-5.09,5v3.33c0,3.47,1.87,5.31,5.41,5.31h31a38.59,38.59,0,0,1-7.14,9.78l-.8-1c-1.08-1.31-2.18-2.62-3.25-4a4.92,4.92,0,0,0-3.82-2,4.64,4.64,0,0,0-2.13.54,41.88,41.88,0,0,0-4.59,2.69,4.26,4.26,0,0,0-1.33,5.85,12.83,12.83,0,0,0,1.21,1.73c1.19,1.47,2.39,2.93,3.61,4.42l.76.92a.83.83,0,0,1-.16.12l-.84.57c-1.66,1.13-3.38,2.3-5.09,3.41-2.84,1.85-3.42,4.13-1.76,7l.52.9c.42.74.86,1.5,1.32,2.25a4.76,4.76,0,0,0,4,2.56,5.28,5.28,0,0,0,2.87-.94c2.83-1.83,5.76-3.83,9-6.11.33-.24.47-.27.51-.27s.18,0,.51.26c3.35,2.39,6.32,4.41,9.1,6.18a5,5,0,0,0,2.76.88,4.74,4.74,0,0,0,4-2.56c.8-1.3,1.47-2.46,2-3.54a5.8,5.8,0,0,0,.65-1.9,4.47,4.47,0,0,0-2.35-4.55c-1.7-1.1-3.36-2.21-5.11-3.38-.43-.29-.86-.58-1.3-.86l.21-.24c5.16-5.75,8.59-11,10.76-16.57a5.9,5.9,0,0,1,.95-1.93,6,6,0,0,1,2.2-.24,4.61,4.61,0,0,0,4.79-4.74c0-.8,0-1.62,0-2.4v-.95c0-3.91-1.69-5.58-5.67-5.58H408.46l-6.08,0a2.87,2.87,0,0,1-.39,0c0-.07,0-.17,0-.33a26.17,26.17,0,0,0,0-3.31,4.39,4.39,0,0,0-4.34-4.36c-.86,0-1.74-.06-2.62-.06s-1.7,0-2.55,0a4.46,4.46,0,0,0-4.36,4.37,19.42,19.42,0,0,0,0,3.05,3.1,3.1,0,0,1,0,.54M429.32,406h0q-28.53,0-57.07.13H348.13v1.58q0,44.52-.05,89c0,1.25.34,1.64,1.65,1.64h0l40.67,0q19.65,0,39.29,0h0a7.28,7.28,0,0,0,7.6-7.56c-.12-22-.05-44-.05-66,0-4,0-7.95,0-11.93,0-2.76-1.07-5-3.71-6.17a11,11,0,0,0-4.24-.72Zm-41.83,26.61c1.31,0,1.78-.41,1.64-1.72a18.85,18.85,0,0,1,0-2.91,3.45,3.45,0,0,1,3.4-3.41c.84,0,1.67,0,2.51,0s1.72,0,2.57.06a3.42,3.42,0,0,1,3.39,3.41,26.12,26.12,0,0,1,0,3.19c-.08,1.07.29,1.42,1.38,1.42h.05l6,0h10.25c3.4,0,4.63,1.19,4.63,4.58,0,1.11,0,2.22,0,3.33a3.63,3.63,0,0,1-3.82,3.76c-3,.09-3,.09-4.05,2.8a54,54,0,0,1-10.58,16.28l-.95,1.1c2.54,1.69,4.93,3.31,7.35,4.88a3.51,3.51,0,0,1,1.91,3.58,5.11,5.11,0,0,1-.54,1.55c-.64,1.19-1.32,2.35-2,3.5a3.77,3.77,0,0,1-3.17,2.08,4.1,4.1,0,0,1-2.22-.72c-3.08-2-6.09-4-9.06-6.15a1.9,1.9,0,0,0-1.09-.45,1.85,1.85,0,0,0-1.09.46c-2.93,2.09-5.91,4.13-8.93,6.08a4.34,4.34,0,0,1-2.33.78,3.77,3.77,0,0,1-3.18-2.08c-.63-1-1.22-2.09-1.83-3.13-1.4-2.41-1-4.09,1.44-5.64,2-1.3,4-2.65,5.95-4,.33-.23.63-.52,1-.83-1.71-2.08-3.36-4.07-5-6.09a10.86,10.86,0,0,1-1.12-1.59,3.23,3.23,0,0,1,1-4.53,41,41,0,0,1,4.48-2.63,3.71,3.71,0,0,1,1.68-.43,4,4,0,0,1,3,1.67c1.54,1.91,3.12,3.79,4.66,5.66,2.47-1.48,7.8-8.88,8.76-12.09-.53,0-1-.06-1.51-.06H371.2c-3,0-4.4-1.36-4.41-4.31v-3.33c0-2.64,1.4-4,4.09-4l8.81,0c2.57,0,5.15,0,7.72,0Z" transform="translate(-124.1 -246.63)"/><path class="cls-3" d="M257.32,497.79c-5.08,0-7.44-2.34-7.44-7.35V413.5c0-4.32,2.64-6.91,7.08-6.92h60.8q9.5,0,19,0h0c.65,0,1,.07,1.13.21a1.55,1.55,0,0,1,.21,1c0,11.6,0,23.39,0,34.8v9.21l0,.5v44.22a4.16,4.16,0,0,1-.08,1.21,4.63,4.63,0,0,1-1.28.08H257.32ZM289,423.66h-1.57c-2.68,0-3.88.88-4.74,3.35l-16.55,47.74a4.31,4.31,0,0,0,.38,3.94,4.38,4.38,0,0,0,3.64,1.76c1,0,2,0,2.95,0s2.19,0,3.29-.05a4.06,4.06,0,0,0,4.24-3.26c.78-2.61,1.54-5.17,2.25-7.73.16-.59.36-.74,1-.74l7.53,0,7.74,0c.69,0,.91.17,1.09.82.59,2.18,1.25,4.37,1.89,6.49l.26.85c.79,2.62,2.07,3.56,4.88,3.59h5.23a4.82,4.82,0,0,0,4.13-1.72,4.65,4.65,0,0,0,.27-4.33q-1.92-5.57-3.85-11.11l-2.29-6.59-10.31-29.78a4.27,4.27,0,0,0-4.52-3.3h-4.89v0Z" transform="translate(-124.1 -246.63)"/><path class="cls-3" d="M336.8,406.05v1a3.81,3.81,0,0,1,.72.05h0s.08.14.08.68c0,11.58,0,23.36,0,34.75v8.76h0v45.22c0,.28,0,.57,0,.78H257.32c-4.8,0-6.94-2.11-6.94-6.85V413.5c0-4.07,2.4-6.41,6.58-6.42h60.77c5.22,0,12.1,0,19,0l0-1m-46.23,17.12h-3.11c-2.91,0-4.27,1-5.2,3.69l-16.55,47.73a4.81,4.81,0,0,0,.44,4.4,4.86,4.86,0,0,0,4,2c1,0,2,0,3,0s2.2,0,3.3-.05a4.55,4.55,0,0,0,4.71-3.62c.78-2.62,1.54-5.18,2.25-7.74a.7.7,0,0,1,.14-.32.76.76,0,0,1,.37,0l7.55,0,7.73,0c.45,0,.47,0,.58.45.59,2.16,1.24,4.32,1.88,6.42l.28.93c.86,2.85,2.31,3.92,5.35,4h5.24c2.64,0,3.92-1.06,4.54-1.93s1.16-2.38.33-4.78q-1.92-5.56-3.86-11.14l-2.28-6.57-4.58-13.23L301,426.78a4.75,4.75,0,0,0-5-3.64h-5.4v0m46.23-17.12h0q-9.51,0-19,0H257c-4.76,0-7.58,2.82-7.58,7.42v76.94c0,5.27,2.6,7.85,7.94,7.85h79.43c1.8,0,1.8,0,1.8-1.79q0-22.11,0-44.22h0c0-14.84,0-29.67,0-44.51,0-1.45-.46-1.73-1.8-1.73Zm-45.23,18.12v0H296a3.77,3.77,0,0,1,4.05,3l10.32,29.78c2,5.9,4.11,11.8,6.14,17.71,1.12,3.26-.42,5.36-3.93,5.38H307.3c-2.58,0-3.67-.83-4.4-3.24s-1.49-4.87-2.15-7.32a1.37,1.37,0,0,0-1.55-1.19h0l-7.71,0c-2.51,0-5,0-7.54,0h0a1.28,1.28,0,0,0-1.45,1.1c-.72,2.59-1.48,5.16-2.25,7.73a3.57,3.57,0,0,1-3.77,2.9c-1.1,0-2.19.05-3.28.05s-2,0-2.93,0c-2.94-.07-4.51-2.32-3.56-5q8.26-23.87,16.55-47.74c.78-2.27,1.77-3,4.27-3h4.09Z" transform="translate(-124.1 -246.63)"/><polygon class="cls-3" points="162.78 210.05 167.52 193 172.21 210.05 162.78 210.05"/><path class="cls-3" d="M291.62,441.5l4,14.68h-8.11l3.81-13.71.27-1m0-3.75c-1.76,6.34-3.57,12.86-5.4,19.43H297q-2.71-9.92-5.34-19.43Z" transform="translate(-124.1 -246.63)"/></svg>