<svg id="Layer_1" data-name="Layer 1" xmlns="http://www.w3.org/2000/svg" viewBox="0 0 347.91 347.91"><defs><style>.cls-1{fill:none;stroke:#28397e;stroke-miterlimit:10;stroke-width:7px;}.cls-2{fill:#e8346f;}.cls-3{fill:#28397e;}</style></defs><circle class="cls-1" cx="173.96" cy="173.96" r="170.46"/><path class="cls-2" d="M404.71,445.49a40,40,0,0,0-8.55-6.22,40,40,0,0,0-56.43,21.59c-.31.81-.68,1.6-1,2.4a2.3,2.3,0,0,1-2.28,1.52c-5.17,0-10.33,0-15.5,0a2.57,2.57,0,0,1-2.45-3.39,69,69,0,0,1,4.06-11.76,59.61,59.61,0,0,1,17-22A56.48,56.48,0,0,1,367,415.37a60.92,60.92,0,0,1,28.69,2.13,60.07,60.07,0,0,1,22.32,13l.8.7c.25-.23.48-.43.69-.64,3.19-3.16,6.36-6.35,9.58-9.49a4.94,4.94,0,0,1,8.27,2.1,5.72,5.72,0,0,1,.23,1.65q0,17.34,0,34.67a5.06,5.06,0,0,1-5.27,5.29q-17.32,0-34.67,0a5,5,0,0,1-4.56-7.49,7.22,7.22,0,0,1,1.24-1.47C397.74,452.39,401.19,449,404.71,445.49Z" transform="translate(-124.04 -246.58)"/><path class="cls-2" d="M335.39,518.61c-3.08,3.11-6.27,6.35-9.48,9.58a8,8,0,0,1-1.32,1.15,5,5,0,0,1-7.57-3.7,11.92,11.92,0,0,1,0-1.34V490.56c0-3.61,2-5.65,5.66-5.65q17.08,0,34.17,0a5.11,5.11,0,0,1,5.37,4.83,4.9,4.9,0,0,1-1.55,3.75c-3.34,3.33-6.66,6.68-10,10a4.7,4.7,0,0,1-.83.51,38,38,0,0,0,7.89,5.84,39.9,39.9,0,0,0,39.86-.29,38.48,38.48,0,0,0,13.81-13.49,61.68,61.68,0,0,0,3.75-8c1.35-3.12,1.3-3.15,4.66-3.15,4.24,0,8.49.08,12.73,0a2.76,2.76,0,0,1,2.9,3.7,68.33,68.33,0,0,1-7.3,17.83,59.78,59.78,0,0,1-12,14.23,58,58,0,0,1-15,9.64,55.25,55.25,0,0,1-14.76,4.19,59.68,59.68,0,0,1-41.63-8.88C341.52,523.54,338.61,521,335.39,518.61Z" transform="translate(-124.04 -246.58)"/><path class="cls-3" d="M343.17,412.85l-2.57-3.19a16,16,0,0,1-1.49-2.17,4.45,4.45,0,0,1,1.36-6.15,57.19,57.19,0,0,1,6-3.57c2.34-1.2,4.55-.5,6.29,1.69,1.93,2.42,3.89,4.81,5.81,7.18l1.62-.44c3.57-3.21,9.34-11.59,10.48-15.47-.71,0-1.37-.09-2-.09H327.36c-4,0-5.88-1.85-5.88-5.85,0-1.5,0-3,0-4.51,0-3.6,1.86-5.47,5.45-5.48,7.35,0,14.7-.06,22.05,0,1.83,0,2.49-.52,2.3-2.34a26,26,0,0,1,0-4,4.64,4.64,0,0,1,4.53-4.62c2.26-.1,4.53-.11,6.79,0a4.62,4.62,0,0,1,4.52,4.64,39.09,39.09,0,0,1,0,4.33c-.11,1.47.41,1.94,1.91,1.93,7.22-.07,14.44,0,21.67,0,4.57,0,6.22,1.61,6.22,6.23,0,1.5,0,3,0,4.51a4.89,4.89,0,0,1-5.1,5.11c-4,.13-4,.13-5.4,3.81a59.77,59.77,0,0,1-4.83,9.71,71.68,71.68,0,0,1,33.9,10.6q0-25.25,0-50.51c0-5.4,0-10.79,0-16.19,0-3.75-1.42-6.85-4.95-8.39a14.57,14.57,0,0,0-5.66-1q-38.07,0-76.13.16c-10,0-20,0-30,0h-2.21V341q0,60.44-.06,120.87c0,1.7.45,2.23,2.2,2.23h8A72.06,72.06,0,0,1,343.17,412.85Z" transform="translate(-124.04 -246.58)"/><path class="cls-3" d="M281.42,338.83c-15.58.07-31.15,0-46.73,0q-29.85,0-59.72,0c-6.35,0-10.12,3.83-10.12,10.07V453.4c0,7.16,3.47,10.65,10.6,10.65l105.88,0c2.48,0,2.48,0,2.48-2.43v-60h0c0-20.14,0-40.28.05-60.42C283.88,339.19,283.24,338.82,281.42,338.83ZM249.09,439.19c-2.32,0-4.65,0-7,0-3.45,0-4.9-1.12-5.87-4.4s-2-6.6-2.87-9.94a1.83,1.83,0,0,0-2.09-1.6q-10.17.06-20.35,0a1.73,1.73,0,0,0-2,1.5c-1,3.5-2,7-3,10.48-.78,2.67-2.27,3.88-5,4s-5.53.08-8.29,0c-3.91-.09-6-3.15-4.75-6.84L210,367.52c1.05-3.09,2.37-4,5.7-4.09,1.82,0,3.64,0,5.46,0v0c1.94,0,3.89,0,5.83,0,3,.08,4.44,1.15,5.42,4q6.88,20.2,13.75,40.43c2.73,8,5.49,16,8.19,24C255.83,436.31,253.78,439.15,249.09,439.19Z" transform="translate(-124.04 -246.58)"/><path class="cls-3" d="M214.5,408h13.89q-3.52-13.05-6.9-25.58C219.21,390.72,216.87,399.3,214.5,408Z" transform="translate(-124.04 -246.58)"/></svg>