<svg id="Layer_1" data-name="Layer 1" xmlns="http://www.w3.org/2000/svg" viewBox="0 0 347.8 347.8"><defs><style>.cls-1{fill:none;stroke:#28397e;stroke-linecap:round;stroke-linejoin:round;stroke-width:7px;}.cls-2{fill:#28397e;}.cls-3{fill:#010101;}</style></defs><circle class="cls-1" cx="173.9" cy="173.9" r="170.4"/><path class="cls-2" d="M387.74,510.36v9.15H219.53v-202H320.47V319q0,26.24,0,52.48a12.7,12.7,0,0,0,7.2,12.06,13.4,13.4,0,0,0,6.39,1.25h53.69v8.3h16.89q0-10.1,0-20.21a31.74,31.74,0,0,0-9.4-22.76q-20-20.33-40.32-40.25a31.33,31.33,0,0,0-22.41-9.22q-58.31-.12-116.61,0a16.92,16.92,0,0,0-3.88.44,12.91,12.91,0,0,0-9.46,12.84c.1,34.8.05,69.6.05,104.4s0,69.78,0,104.68c0,8,5.33,13.35,13.37,13.35q87.63,0,175.26,0a15.11,15.11,0,0,0,4-.45c5.95-1.62,9.4-6.44,9.4-13V510.36ZM337.39,318.62A12,12,0,0,1,343,321.7q20.3,20.25,40.51,40.58c1.46,1.47,2.3,3.54,3.43,5.33l-.42.33H337.39Z" transform="translate(-124.1 -246.63)"/><line class="cls-1" x1="124.5" y1="136.07" x2="169.5" y2="136.07"/><line class="cls-1" x1="124.5" y1="101.07" x2="169.5" y2="101.07"/><path class="cls-3" d="M362.63,400.43q26.73,0,53.45,0a11.1,11.1,0,0,1,9.37,4.35,11,11,0,0,1,2.18,7v55.25q0,13,0,26a11,11,0,0,1-1,5,10.52,10.52,0,0,1-8.64,6.26,26.3,26.3,0,0,1-2.81.12H309.05a11,11,0,0,1-6.51-1.79,10.42,10.42,0,0,1-4.78-7.86c-.09-1-.12-2.11-.12-3.17q0-39.87,0-79.73A11,11,0,0,1,299,406a10.83,10.83,0,0,1,9.91-5.61h53.73Zm-.06,95.33h53.87a2.23,2.23,0,0,0,2.23-1.16,3.9,3.9,0,0,0,.29-1.67q0-40.59,0-81.17c0-1.93-.76-2.69-2.73-2.69H309c-1.95,0-2.71.77-2.71,2.71V460q0,16.56,0,33.14a3.75,3.75,0,0,0,.46,1.76c.46.83,1.32.91,2.21.91Z" transform="translate(-124.1 -246.63)"/><path class="cls-3" d="M315,487v-4.8c0-2.53,0-5.05,0-7.58a1.45,1.45,0,0,1,.34-.88q10.5-10.54,21-21l.19-.16,10.78,10.79,34.76-34.76.66.61q13.53,13.53,27,27.07a1.65,1.65,0,0,1,.5,1q0,14.63,0,29.24c0,.15,0,.29,0,.49Z" transform="translate(-124.1 -246.63)"/><path class="cls-3" d="M315,430.31a13,13,0,1,1,12.51,13.43A13,13,0,0,1,315,430.31Z" transform="translate(-124.1 -246.63)"/></svg>