<svg id="Layer_1" data-name="Layer 1" xmlns="http://www.w3.org/2000/svg" viewBox="0 0 356.86 356.86"><defs><style>.cls-1{fill:#28397e;}.cls-2{fill:none;stroke:#28397e;stroke-miterlimit:10;stroke-width:7px;}</style></defs><path class="cls-1" d="M287.63,333.66l56,56c-.12.14-.38.47-.67.76q-55.2,55.2-110.42,110.38a3.13,3.13,0,0,1-1.94.9q-27.06.07-54.11,0c-.24,0-.48,0-.95-.05v-1.51q0-26.55,0-53.1a3.23,3.23,0,0,1,1.07-2.5q55-55,110-110C287,334.25,287.37,333.91,287.63,333.66ZM192.8,467.3h17.34v17.21c4.72,0,9.31,0,13.91,0a1.69,1.69,0,0,0,1-.48c3.94-3.86,7.86-7.73,11.67-11.49l-31.93-31.93c-3.77,3.84-7.67,7.79-11.55,11.78a1.59,1.59,0,0,0-.4,1C192.8,457.93,192.8,462.48,192.8,467.3ZM295.39,359.39l-.35-.24a2.47,2.47,0,0,0-2.71-2.78,4.19,4.19,0,0,0-3.23,1.6l-71.7,71.7c-.44.44-1.06.91-1.14,1.44a8.06,8.06,0,0,0,.06,3.39,2,2,0,0,0,2.68,1,7.3,7.3,0,0,0,2.87-1.71q20-19.92,40-39.94,15.76-15.76,31.51-31.55A19.88,19.88,0,0,0,295.39,359.39Z" transform="translate(-119.57 -242.1)"/><path class="cls-1" d="M352.72,380.61l-56-56c.14-.16.44-.51.76-.83q10.56-10.5,21.12-21c5.64-5.57,12.59-7,19.64-3.71a19.9,19.9,0,0,1,5.43,3.92q15.45,15.18,30.72,30.52c5.57,5.56,7.15,13.09,4,19.92a18.8,18.8,0,0,1-3.61,5.14c-7.11,7.26-14.34,14.41-21.53,21.59C353.05,380.36,352.82,380.52,352.72,380.61Z" transform="translate(-119.57 -242.1)"/><circle class="cls-2" cx="178.43" cy="178.43" r="174.93"/><path d="M330.61,525.48v-36.3h-5.72a6,6,0,0,1-4.16-1.5,6.15,6.15,0,0,1-2.18-4.88c0-3.79,0-7.59,0-11.38A6.09,6.09,0,0,1,325,465h35.46a6.11,6.11,0,0,1,6.5,6.5q0,26.14,0,52.29v1.58c.29,0,.54.08.79.08h4.84a6.11,6.11,0,0,1,6.46,6.44q0,5.64,0,11.29a6.12,6.12,0,0,1-6.48,6.43H325.08a6.13,6.13,0,0,1-6.52-6.49c0-3.76,0-7.52,0-11.28a6.09,6.09,0,0,1,6.41-6.39Z" transform="translate(-119.57 -242.1)"/><path d="M348.8,416.65h11.59c4,0,6.53,2.56,6.53,6.57q0,8.52,0,17c0,4.06-2.55,6.6-6.61,6.6H337.23c-4,0-6.58-2.56-6.58-6.63V423.29c0-4.13,2.52-6.64,6.66-6.64Z" transform="translate(-119.57 -242.1)"/></svg>