<svg id="Layer_1" data-name="Layer 1" xmlns="http://www.w3.org/2000/svg" viewBox="0 0 347.8 347.8"><defs><style>.cls-1,.cls-2,.cls-5{fill:none;stroke-width:7px;}.cls-1,.cls-2{stroke:#28397e;}.cls-1,.cls-5{stroke-miterlimit:10;}.cls-2{stroke-linecap:round;stroke-linejoin:round;}.cls-3{fill:#28397e;}.cls-4{fill:#e8346f;}.cls-5{stroke:#e8346f;}</style></defs><circle class="cls-1" cx="173.9" cy="173.9" r="170.4"/><line class="cls-2" x1="118.66" y1="94.94" x2="162.81" y2="94.94"/><line class="cls-2" x1="118.77" y1="129.37" x2="162.93" y2="129.37"/><line class="cls-2" x1="118.77" y1="163.72" x2="162.93" y2="163.59"/><path class="cls-3" d="M295.89,514.6h-81v-202H315.87v1.46q0,26.25,0,52.49c0,5.45,2.34,9.5,7.19,12.05a13.3,13.3,0,0,0,6.4,1.25h53.68v8.31H400c0-6.74,0-13.47,0-20.21a31.79,31.79,0,0,0-9.41-22.77q-20-20.31-40.32-40.24a31.26,31.26,0,0,0-22.4-9.22q-58.31-.13-116.61,0a16.26,16.26,0,0,0-3.88.44A12.92,12.92,0,0,0,197.94,309c.11,34.79.05,69.59.05,104.39s0,69.79,0,104.68c0,8,5.33,13.36,13.37,13.36h84.52m36.9-217.74a12.18,12.18,0,0,1,5.63,3.08q20.29,20.25,40.52,40.59c1.45,1.47,2.29,3.54,3.42,5.33L382,363H332.79Z" transform="translate(-124.1 -246.63)"/><path class="cls-4" d="M366.06,538.56c-10.64,0-21.28,0-31.92,0-5.36,0-9.39-2.35-12.53-6.53a22.23,22.23,0,0,1-4.36-13.86,85.49,85.49,0,0,1,1.93-19.47c1.33-5.66,3.09-11.17,6.78-15.8a19.89,19.89,0,0,1,14-7.75,4.66,4.66,0,0,1,3.9,1.31c7.6,6.73,16.54,9.19,26.55,8.07a32,32,0,0,0,18.69-8.69,2.67,2.67,0,0,1,2.17-.75,19.83,19.83,0,0,1,14.61,7.35,29.89,29.89,0,0,1,5.22,9.6c2.89,8.13,3.75,16.57,3.86,25.13a25.79,25.79,0,0,1-1,8.2c-1.62,5.09-4.46,9.26-9.33,11.8a13.49,13.49,0,0,1-6.37,1.37Z" transform="translate(-124.1 -246.63)"/><path class="cls-4" d="M366.11,479.94c-16.05.16-29.36-13.23-29.36-29.33a29.34,29.34,0,0,1,58.68,0C395.4,466.71,382.12,480.08,366.11,479.94Z" transform="translate(-124.1 -246.63)"/><path class="cls-5" d="M338.29,509c-10.15,0-20.3,0-30.44,0-5.11,0-9-2.24-12-6.22a21.19,21.19,0,0,1-4.16-13.22A81.56,81.56,0,0,1,293.58,471c1.27-5.4,2.95-10.65,6.47-15.07a19,19,0,0,1,13.32-7.39,4.44,4.44,0,0,1,3.72,1.25c7.24,6.41,15.78,8.76,25.32,7.7a30.54,30.54,0,0,0,17.83-8.29,2.52,2.52,0,0,1,2.06-.72,18.93,18.93,0,0,1,13.94,7,28.31,28.31,0,0,1,5,9.16c2.76,7.75,3.58,15.8,3.68,24a24.48,24.48,0,0,1-.95,7.81c-1.56,4.86-4.26,8.83-8.9,11.25A12.79,12.79,0,0,1,369,509Z" transform="translate(-124.1 -246.63)"/><path class="cls-5" d="M338.33,446.12c-15.3.15-28-12.62-28-28a28,28,0,0,1,56,0C366.27,433.5,353.6,446.25,338.33,446.12Z" transform="translate(-124.1 -246.63)"/></svg>