<svg id="Layer_1" data-name="Layer 1" xmlns="http://www.w3.org/2000/svg" viewBox="0 0 352.28 352.28"><defs><style>.cls-1{fill:#28397e;}.cls-2{fill:none;stroke:#28397e;stroke-miterlimit:10;stroke-width:7px;}</style></defs><path class="cls-1" d="M386.86,514.69c0,1.45,0,3.14,0,4.71H216.44V314.78H318.71v1.49q0,26.58,0,53.17c0,5.53,2.38,9.63,7.29,12.21a13.53,13.53,0,0,0,6.48,1.27h54.39c0,2.7,0,6.65,0,8.09a2.18,2.18,0,0,0,2.27,2c.87,0,11.95,0,12.81-.16s2.09-.72,2-2,0-13.35,0-20a32.19,32.19,0,0,0-9.53-23.07Q374.21,327.21,353.59,307a31.73,31.73,0,0,0-22.7-9.34q-59.07-.12-118.14,0a17.28,17.28,0,0,0-3.93.44,13.08,13.08,0,0,0-9.59,13c.1,35.26.05,70.51.05,105.77s0,70.7,0,106c0,8.14,5.41,13.53,13.55,13.53q88.78,0,177.56,0a15.53,15.53,0,0,0,4.08-.45c6-1.65,9.52-6.53,9.52-13.17,0-2.84.06-7.23,0-8.53a2.61,2.61,0,0,0-2.46-2.71c-1.58,0-10.64.05-12.08.17A3,3,0,0,0,386.86,514.69Zm-51-198.82a12.26,12.26,0,0,1,5.7,3.12q20.57,20.52,41.05,41.12c1.47,1.49,2.33,3.58,3.47,5.4l-.42.33h-49.8Z" transform="translate(-121.86 -244.39)"/><path d="M351.75,420.05v-1.29c0-5.43,0-10.86,0-16.29,0-3.65-2.37-6.17-5.79-6.26a5.92,5.92,0,0,0-4.5,1.94q-7.21,7.26-14.46,14.48c-6.9,6.91-13.79,13.84-20.71,20.72-1.92,1.91-2.78,4-1.74,6.64a7.57,7.57,0,0,0,1.69,2.41q17.63,17.7,35.29,35.36a5.66,5.66,0,0,0,6.45,1.47,5.6,5.6,0,0,0,3.76-5.54c0-1.29,0-2.58,0-3.87v-14c.29,0,.52-.05.74-.05,5.85,0,11.71-.06,17.57.06A78.91,78.91,0,0,1,393,459.21c5.26,1.69,10.08,4.14,13.92,8.26a27.72,27.72,0,0,1,5.67,9.47,53.77,53.77,0,0,1,2.88,20c-.12,4.85-.65,9.7-1.06,14.55-.16,1.85.39,3.14,1.8,3.69a3.17,3.17,0,0,0,3.9-1.52,108.33,108.33,0,0,0,12-23.76,55.8,55.8,0,0,0,2.8-23.58,57.22,57.22,0,0,0-3.53-16.53,39.63,39.63,0,0,0-17-19.71c-8.32-4.94-17.44-7.31-26.9-8.7-11.35-1.66-22.77-1.35-34.18-1.37Z" transform="translate(-121.86 -244.39)"/><circle class="cls-2" cx="176.14" cy="176.14" r="172.64"/></svg>