<svg id="Layer_1" data-name="Layer 1" xmlns="http://www.w3.org/2000/svg" viewBox="0 0 328.05 328.05"><defs><style>.cls-1{fill:#28397e;}.cls-2{fill:none;stroke:#28397e;stroke-miterlimit:10;stroke-width:7px;}</style></defs><path class="cls-1" d="M257.84,426.78h-2.93c-16.58,0-33.16-.1-49.73,0-9.27.08-13.86-6.63-14.33-13.61a10.63,10.63,0,0,1,2.44-7.23,28.44,28.44,0,0,1,2.39-2.65q46-46,91.9-92.06c4.28-4.29,9.05-6.34,14.87-4.09a17.52,17.52,0,0,1,5.74,4q39.81,39.7,79.51,79.53c4.73,4.74,9.46,9.47,14.11,14.29,3.57,3.7,4.2,8.07,2.33,12.79s-5,8.08-10.32,8.7a35.49,35.49,0,0,1-4,.24q-24.4,0-48.83,0h-2.78c0,.82-.1,1.46-.1,2.11q0,45.09,0,90.19c0,9.29-5.56,14.86-14.84,14.87H272.64c-9.25,0-14.8-5.61-14.8-14.93V426.78Z" transform="translate(-133.98 -256.51)"/><circle class="cls-2" cx="164.03" cy="164.02" r="160.52"/></svg>