<svg id="Layer_1" data-name="Layer 1" xmlns="http://www.w3.org/2000/svg" viewBox="0 0 300 299.98"><defs><style>.cls-1{fill:#28397e;}</style></defs><path class="cls-1" d="M297,270.55c83-.09,147.77,66.85,149.92,145.2a150,150,0,1,1-299.94,4.13C147.15,337.47,214.2,270.55,297,270.55ZM229,424.93l.74-.65c1.11.49,2.25.93,3.32,1.5a2.13,2.13,0,0,1,.7,1.11c.72,1.89,1.07,4,2.17,5.65,1.62,2.39,3.92,4.32,5.65,6.65,1.56,2.11,2.73,4.52,4.11,6.77a2.65,2.65,0,0,0,.87.75c3.73,2.36,6.5,5.37,7.13,10,.17,1.24.52,2.45.71,3.68a7.93,7.93,0,0,0,4.21,5.88c4.22,2.4,8.51,4.67,12.78,7a8.18,8.18,0,0,0,7,.7c3.62-1.39,6.32-.18,8.56,2.71,3.59,4.65,8.4,6.54,14.18,6.2,2.76,7.94,9.87,14.08,12.95,13.93,1.59,3.29,3.58,5,5.26,4.58s2.78-3.07,2.39-6c-4.06,1.06-5.81.93-7.58-1.43a32.19,32.19,0,0,1-3.37-6.36c-.56-1.24-.21-2.24,1.49-2.47a2,2,0,0,0,1.22-1.6c-.75-4.07-2.35-7.75-5.62-10.5-2.35,1.74-3.28,1.72-6.24-.12l-.73,1.76h-2.66a27.69,27.69,0,0,1,.61-4.86c1-3,2.2-5.93,3.31-8.89,1-2.68.17-3.93-2.71-4.05-3.51-.15-5.42,1.51-6.71,5.27-.53,1.53-1.45,3.35-2.74,4.12-3.46,2.06-9.86.3-12.13-3.07a19.5,19.5,0,0,1-3.28-14,44.7,44.7,0,0,0,.37-8.65c-.09-1.46-.68-2.75.8-3.83,1.15-.84,2.12-2.31,3.35-2.55,1.77-.35,2.06-1.06,1.57-2.54,4,0,7.86-2,11.7.58,1.27.85,2.55-.65,2.17-2.32-.19-.81-.36-1.63-.54-2.44,1,1.54,2,2.84,3.92,1.95,3.32-1.54,6.26-.14,8.9,1.41,1.72,1,2.94,1.87,4.85-.07.86,2.1,1.62,3.86,2.31,5.64a59.1,59.1,0,0,0,2.57,6.56c.43.79,1.89,1,2.89,1.51.36-.83,1-1.65,1-2.47-.06-3.39-.3-6.78-.59-10.16,0-.48-.69-1.09-1.2-1.33-2.81-1.32-3.47-3.39-1.89-6.08a9.69,9.69,0,0,1,5.55-4.41,10.88,10.88,0,0,0,7-6.14c.65-1.52,1.07-3.13,1.69-5l-2.22-1.55a18.77,18.77,0,0,1,.47-3.78,21.09,21.09,0,0,1,1.93-3.46,11.14,11.14,0,0,0,1.61.94c1.78.67,4.06-1,3.51-2.75-.47-1.51.36-1.89,1.32-2.29s2.12-.65,3.15-1.05c2.37-.94,5.06-1.52,4.63-5.16a3,3,0,0,1,1.64-2.35c3.86-1.16,6.7-4.34,10.72-5.22a6.76,6.76,0,0,0,3-2.09,2.16,2.16,0,0,0,.3-2.05c-1.05-1.6-2.36-3-3.5-4.45a2.43,2.43,0,0,0,1.21-.09,25.32,25.32,0,0,0,2.58-1.68c-.72-.55-1.36-1.37-2.17-1.6-3.92-1.09-7,.8-9.8,3.19a18,18,0,0,0-2,2.39,7.38,7.38,0,0,1,5.36-6.93,85.23,85.23,0,0,1,9.26-2.31c3.78-.81,7.55-1.22,10.79,1.71,2.34-2.9,4.79-5.27,8.55-5.73a2.45,2.45,0,0,0,2.33-2.89,21.69,21.69,0,0,1,.14-2.57c-3.24-.07-4-2.35-4.44-4.53-.68-.24-1.14-.42-1.61-.55a6.3,6.3,0,0,0-2.12-.45c-4.33.5-5.88-.52-7-4.71a11.3,11.3,0,0,0-1.21-3.28c-1.43-2.17-3.07-4.2-4.63-6.28-.75-1-1.73-1.39-2.57-.29-1.31,1.7-2.59,3.14-5,3.35-1.1.1-2.12,1.14-3.18,1.75l.09-.69-4.16-2.14a5.63,5.63,0,0,0-2.47-6.76c-4.39-2.26-8.9-4.18-13.9-4.66-4-.38-6.78-.29-4.52,5.35a4.19,4.19,0,0,1-.35,4.49c-2,2.7-1.87,3.28.93,5.29l.67.49c2.35,1.81,2.43,3.92.14,5.86-1.06.89-2.28,1.59-3.39,2.41-1.93,1.41-2.37,2.86-1.43,5.06.4.94,1.11,1.75,1.58,2.66.21.42.43,1.1.24,1.43a4.4,4.4,0,0,1-7.67.41,44,44,0,0,1-2.94-6.61c-1.58-3.94-4.09-5.11-8-3.72-5.32-4.94-11.71-6.28-18.72-5.69-.45-2.61-1.09-4.93-3.91-5.28a16.57,16.57,0,0,1,4.89-12.92,4,4,0,0,0,.81-1.21c.52-1.29,1.43-1.57,2.77-1.51,4.23.18,7.42-1.39,9.56-5.31,2.94-5.4,3.08-5.31,8.87-3.1,1.4.53,3.15,1.06,4-.39.6-1,.2-2.69.21-4.06,0-.41-.35-1-.18-1.19,1.37-1.46.24-2.76-.52-3.68a4.41,4.41,0,0,0-3.09-1.47c-1.37,0-2.72.79-4.21,1.28l.77,1.55c-.81,1-1.48,1.89-2.2,2.73-3.45,4.07-4.62,3.87-6.65-1.13-1.3-3.21-2-3.34-4.37-.8-.08.08-.23.08.19-.05l-6.56-3.39c0-1,.38-2.29-.07-3.09-1.42-2.5-7-4-9.56-2.61a4.13,4.13,0,0,0-1.75,2.57c-.11.52.83,1.53,1.52,1.91,1.38.75,3,1.12,4.39,1.85a31.22,31.22,0,0,1,3.46,2.47c-1.91.8-3.08,1.37-4.3,1.78-1.77.59-2.42,1.63-1.91,3.48a13.08,13.08,0,0,1,.17,2.67l-.75.17-2.36-5.54a20.06,20.06,0,0,1-2.32.39c-3.59.12-7.18.19-10.77.26a7.08,7.08,0,0,1-1.45-.1,3.19,3.19,0,0,1-2.82-3.89,22.15,22.15,0,0,1,.57-2.23,19.88,19.88,0,0,1-1.83-1.71,2.86,2.86,0,0,0-3.81-.74c-2.66,1.19-5.43,2.12-8.09,3.29s-5,2.41-7.54,3.63l.28.76c5-2,9.55-5.4,15.64-4.54l2.63,3.29c-2.6.53-5,.92-7.4,1.55-1.46.38-2.56,1.2-1.38,3a6.49,6.49,0,0,1,.36,2c-1.33-1.12-2.39-1.88-3.3-2.8-2.44-2.49-7.94-2.81-11.21-.89A124.39,124.39,0,0,0,201.1,340.5c-3.59,4.37-6.78,9.07-10.38,13.92,3,.95,3.94,3.09,4.3,5.62l2.62-.81.48,3.33c3.75,2.82,7.54,5.48,11.11,8.41,2,1.67,1.67,3.14-.75,4.58-.48-.43-1-.91-1.5-1.33s-1.16-.81-1.75-1.21l-.77.41,1.58,6.43a11.34,11.34,0,0,0-.78,2.87A126.18,126.18,0,0,0,205,396.6c.21,3.09.89,6.4,4.19,8.12a1.09,1.09,0,0,1,.38.61,19.14,19.14,0,0,0,8.38,10.92c2.54,1.61,4.82,3.34,6.17,6.24,1.9,4.11,4.24,8,6.27,12.08a19.88,19.88,0,0,1,1,3.84l-.68.33a22.71,22.71,0,0,0,2.48,1.84c2.18,1.2,3.82,2.66,4,5.4,0,.75.75,1.46,1.15,2.19l.83-.31a10.56,10.56,0,0,0-.39-3.12c-1.42-3.22-3-6.37-4.57-9.53C232.45,431.77,230.69,428.36,229,424.93ZM318.88,543.5c26.83-4.76,49.45-17.06,68.35-36.93-2.44-.8-4.56-1.55-6.72-2.18-1.65-.48-3-1-3.32-3.07-.13-.9-1.28-1.76-2.14-2.41-2.15-1.64-4.46-3.06-6.57-4.73-2.34-1.84-4.69-1.72-7.15-.46-.73.36-1.42.8-1.77,1-3.23-1.72-6.29-3.17-9.17-4.92-3.6-2.18-4.27-2.22-7,.72.1-3.09-1.13-4-3.83-2.91a5,5,0,0,0-1.27.69c-3.33,2.78-8,4.25-8.81,9.34l-4.38-1.48c.59,4.76,1,9.18,1.72,13.53.71,4.14.05,7.66-3.22,10.56a20.69,20.69,0,0,0-3.41,3.89c-2.12,3.16-2.43,6.07,1,8.52C320.16,536.14,316.72,539.14,318.88,543.5Z" transform="translate(-146.94 -270.55)"/></svg>