<svg id="Layer_1" data-name="Layer 1" xmlns="http://www.w3.org/2000/svg" viewBox="0 0 347.8 347.8"><defs><style>.cls-1{fill:none;stroke:#28397e;stroke-linecap:round;stroke-linejoin:round;stroke-width:7px;}.cls-2{fill:#28397e;}</style></defs><circle class="cls-1" cx="173.9" cy="173.9" r="170.4"/><path class="cls-2" d="M197,420.32c0-34.8,0-69.6-.05-104.4a12.91,12.91,0,0,1,9.46-12.84,16.94,16.94,0,0,1,3.89-.44q58.29,0,116.6,0a31.33,31.33,0,0,1,22.41,9.22q20.32,20,40.31,40.25A31.71,31.71,0,0,1,399,374.89q.09,75,0,150c0,6.55-3.45,11.37-9.4,13a15.11,15.11,0,0,1-4,.45q-87.63,0-175.26,0c-8,0-13.37-5.32-13.37-13.35Q197,472.65,197,420.32ZM382.14,521.51V386.8H328.45a13.4,13.4,0,0,1-6.39-1.25,12.7,12.7,0,0,1-7.2-12.06q0-26.25,0-52.48v-1.47H213.93v202Zm-1.2-151.57.42-.33c-1.13-1.79-2-3.86-3.43-5.33q-20.16-20.38-40.51-40.58a12,12,0,0,0-5.63-3.08v49.32Z" transform="translate(-124.1 -246.63)"/><line class="cls-1" x1="118.9" y1="208.07" x2="224.9" y2="208.07"/><line class="cls-1" x1="118.9" y1="243.07" x2="224.9" y2="243.07"/><line class="cls-1" x1="118.9" y1="138.07" x2="163.9" y2="138.07"/><line class="cls-1" x1="118.9" y1="173.07" x2="224.9" y2="173.07"/><line class="cls-1" x1="118.9" y1="103.07" x2="163.9" y2="103.07"/></svg>