<?xml version="1.0" encoding="UTF-8"?>
<!DOCTYPE svg PUBLIC "-//W3C//DTD SVG 1.1//EN" "http://www.w3.org/Graphics/SVG/1.1/DTD/svg11.dtd">
<svg version="1.1" xmlns="http://www.w3.org/2000/svg" xmlns:xlink="http://www.w3.org/1999/xlink" x="0" y="0" width="146.009" height="146.009" viewBox="0, 0, 146.009, 146.009">
  <g id="Layer_1">
    <path d="M146.009,106.641 C146.009,128.383 128.383,146.009 106.641,146.009 L39.368,146.009 C17.626,146.009 0,128.383 0,106.641 L0,39.368 C0,17.626 17.626,0 39.368,0 L106.641,0 C128.383,0 146.009,17.626 146.009,39.368 L146.009,106.641 z" fill="#0E1573"/>
    <path d="M100.68,94.296 C95.492,101.546 85.688,102.697 83.548,102.945 C82.232,103.11 78.851,103.523 75.145,103.523 C73.501,103.523 66.334,103.356 60.155,101.794 C58.839,101.462 56.777,100.968 53.896,99.734 C50.848,98.415 48.789,96.931 47.8,96.191 C44.669,93.801 43.27,91.661 42.362,90.343 L50.024,87.215 C50.435,87.708 50.765,88.119 51.258,88.612 C52.494,89.85 55.212,91.99 59.248,93.637 C65.92,96.357 73.827,96.44 75.72,96.44 C77.206,96.44 85.935,96.685 91.536,92.486 C94.997,89.851 95.492,86.225 95.492,84.661 C95.492,81.283 93.598,78.813 90.55,77.494 C86.264,75.6 76.216,75.024 71.604,74.613 C60.483,73.705 55.048,73.129 50.766,69.175 C46.812,65.549 46.647,61.432 46.647,59.455 C46.647,51.302 52.248,47.596 54.72,46.277 C58.179,44.383 64.522,42.488 73.912,42.488 C85.443,42.488 92.363,45.288 96.562,48.006 C97.55,48.664 98.374,49.242 99.199,49.985 C101.093,51.547 102.492,53.606 102.988,54.182 L95.41,57.23 C94.997,56.819 93.516,55.336 91.867,54.182 C88.654,51.96 83.136,49.324 73.994,49.324 C68.063,49.324 63.451,50.393 61.309,51.218 C56.284,53.112 54.883,56.571 54.883,59.043 C54.883,60.277 55.213,61.596 55.874,62.667 C57.931,65.96 62.053,66.291 65.429,66.703 C71.851,67.526 78.277,67.854 84.703,68.595 C93.68,69.668 97.799,71.973 100.599,75.434 C103.482,79.14 103.647,82.846 103.647,84.576 C103.646,89.518 101.834,92.732 100.68,94.296" fill="#FFFFFF"/>
  </g>
</svg>
