<?xml version="1.0" encoding="UTF-8"?>
<!DOCTYPE svg PUBLIC "-//W3C//DTD SVG 1.1//EN" "http://www.w3.org/Graphics/SVG/1.1/DTD/svg11.dtd">
<svg version="1.1" xmlns="http://www.w3.org/2000/svg" xmlns:xlink="http://www.w3.org/1999/xlink" x="0" y="0" width="146.009" height="146.009" viewBox="0, 0, 146.009, 146.009">
  <g id="Layer_1">
    <path d="M146.009,106.641 C146.009,128.383 128.383,146.009 106.641,146.009 L39.368,146.009 C17.626,146.009 0,128.383 0,106.641 L0,39.368 C0,17.626 17.626,0 39.368,0 L106.641,0 C128.383,0 146.009,17.626 146.009,39.368 L146.009,106.641 z" fill="#F5F6F6"/>
    <path d="M99.569,95.106 C94.448,102.266 84.768,103.403 82.652,103.647 C81.354,103.808 78.015,104.215 74.357,104.215 C72.735,104.215 65.658,104.051 59.556,102.511 C58.257,102.18 56.221,101.694 53.377,100.475 C50.367,99.173 48.333,97.709 47.357,96.976 C44.265,94.617 42.884,92.503 41.988,91.2 L49.555,88.115 C49.959,88.601 50.285,89.007 50.774,89.493 C51.993,90.715 54.676,92.826 58.661,94.455 C65.249,97.139 73.055,97.221 74.927,97.221 C76.393,97.221 85.013,97.462 90.54,93.319 C93.96,90.716 94.449,87.135 94.449,85.591 C94.449,82.255 92.579,79.817 89.569,78.515 C85.337,76.645 75.416,76.076 70.863,75.671 C59.881,74.775 54.515,74.206 50.287,70.302 C46.385,66.723 46.219,62.656 46.219,60.708 C46.219,52.656 51.75,48.994 54.191,47.694 C57.605,45.824 63.869,43.954 73.14,43.954 C84.526,43.954 91.358,46.72 95.504,49.402 C96.478,50.053 97.29,50.624 98.107,51.357 C99.977,52.897 101.358,54.933 101.85,55.5 L94.367,58.51 C93.96,58.103 92.497,56.64 90.868,55.5 C87.696,53.307 82.248,50.704 73.221,50.704 C67.363,50.704 62.81,51.76 60.695,52.574 C55.733,54.444 54.349,57.859 54.349,60.302 C54.349,61.521 54.677,62.823 55.33,63.88 C57.359,67.131 61.429,67.458 64.764,67.864 C71.104,68.678 77.447,69.001 83.793,69.732 C92.654,70.792 96.722,73.068 99.488,76.484 C102.336,80.145 102.498,83.805 102.498,85.511 C102.497,90.389 100.709,93.563 99.569,95.106" fill="#1E3480"/>
  </g>
</svg>
