<?xml version="1.0" encoding="UTF-8" standalone="no"?>
<svg
   xmlns="http://www.w3.org/2000/svg"
   version="1.1"
   x="0"
   y="0"
   width="146.009"
   height="146.009"
   viewBox="0, 0, 146.009, 146.009"
   >
  <path
     id="path10"
     d="M 39.367188 0 C 17.625187 4.7369516e-15 0 17.625187 0 39.367188 L 0 106.64062 C 4.7369516e-15 128.38263 17.625187 146.00977 39.367188 146.00977 L 106.64062 146.00977 C 128.38262 146.00977 146.00977 128.38263 146.00977 106.64062 L 146.00977 39.367188 C 146.00977 17.625187 128.38262 0 106.64062 0 L 39.367188 0 z M 73.912109 42.488281 C 85.443109 42.488281 92.3635 45.287859 96.5625 48.005859 C 97.5505 48.663859 98.374219 49.241375 99.199219 49.984375 C 101.09322 51.546375 102.49228 53.605641 102.98828 54.181641 L 95.410156 57.230469 C 94.997156 56.819469 93.516188 55.335641 91.867188 54.181641 C 88.654188 51.959641 83.136141 49.324219 73.994141 49.324219 C 68.063141 49.324219 63.450594 50.39375 61.308594 51.21875 C 56.283594 53.11275 54.882813 56.570969 54.882812 59.042969 C 54.882812 60.276969 55.212047 61.596969 55.873047 62.667969 C 57.930047 65.960969 62.053688 66.291125 65.429688 66.703125 C 71.851687 67.526125 78.277125 67.854703 84.703125 68.595703 C 93.680125 69.668703 97.799609 71.972594 100.59961 75.433594 C 103.48261 79.139594 103.64648 82.846172 103.64648 84.576172 C 103.64548 89.518172 101.83369 92.732875 100.67969 94.296875 C 95.491687 101.54688 85.688828 102.69731 83.548828 102.94531 C 82.232828 103.11031 78.850531 103.52344 75.144531 103.52344 C 73.500531 103.52344 66.333297 103.35692 60.154297 101.79492 C 58.838297 101.46292 56.777484 100.96838 53.896484 99.734375 C 50.848484 98.415375 48.789781 96.931406 47.800781 96.191406 C 44.669781 93.801406 43.269328 91.66175 42.361328 90.34375 L 50.023438 87.214844 C 50.434438 87.707844 50.764812 88.118328 51.257812 88.611328 C 52.493812 89.849328 55.212047 91.989719 59.248047 93.636719 C 65.920047 96.356719 73.827703 96.439453 75.720703 96.439453 C 77.206703 96.439453 85.934156 96.685328 91.535156 92.486328 C 94.996156 89.851328 95.492187 86.224156 95.492188 84.660156 C 95.492188 81.282156 93.598781 78.813141 90.550781 77.494141 C 86.264781 75.600141 76.215516 75.024281 71.603516 74.613281 C 60.482516 73.705281 55.047625 73.129781 50.765625 69.175781 C 46.811625 65.549781 46.646484 61.432078 46.646484 59.455078 C 46.646484 51.302078 52.248703 47.596344 54.720703 46.277344 C 58.179703 44.383344 64.522109 42.488281 73.912109 42.488281 z "
     fill="#FFFFFF" />
</svg>
