<?xml version="1.0" encoding="UTF-8"?>
<!DOCTYPE svg PUBLIC "-//W3C//DTD SVG 1.1//EN" "http://www.w3.org/Graphics/SVG/1.1/DTD/svg11.dtd">
<svg version="1.1" xmlns="http://www.w3.org/2000/svg" xmlns:xlink="http://www.w3.org/1999/xlink" x="0" y="0" width="340.67" height="105.38" viewBox="0, 0, 340.67, 105.38">
  <g id="Layer_1">
    <path d="M0,0 L340.67,0 L340.67,105.38 L0,105.38 z" fill="#1E3480"/>
    <g>
      <path d="M56.22,59.78 C54.48,62.21 51.19,62.6 50.48,62.68 C50.04,62.74 48.91,62.87 47.66,62.87 C47.11,62.87 44.71,62.81 42.63,62.29 C42.19,62.18 41.5,62.01 40.53,61.6 C39.51,61.16 38.82,60.66 38.49,60.41 C37.44,59.61 36.97,58.89 36.67,58.45 L39.24,57.4 C39.38,57.57 39.49,57.7 39.65,57.87 C40.06,58.29 40.98,59 42.33,59.55 C44.57,60.46 47.22,60.49 47.85,60.49 C48.35,60.49 51.27,60.57 53.15,59.16 C54.31,58.28 54.48,57.06 54.48,56.54 C54.48,55.41 53.84,54.58 52.82,54.14 C51.38,53.5 48.01,53.31 46.47,53.17 C42.74,52.87 40.92,52.67 39.48,51.35 C38.15,50.13 38.1,48.75 38.1,48.09 C38.1,45.36 39.98,44.11 40.81,43.67 C41.97,43.03 44.1,42.4 47.24,42.4 C51.11,42.4 53.43,43.34 54.83,44.25 C55.16,44.47 55.44,44.66 55.71,44.91 C56.35,45.43 56.81,46.12 56.98,46.32 L54.44,47.34 C54.3,47.2 53.8,46.7 53.25,46.32 C52.17,45.57 50.32,44.69 47.26,44.69 C45.27,44.69 43.73,45.05 43.01,45.33 C41.33,45.97 40.86,47.12 40.86,47.95 C40.86,48.36 40.97,48.81 41.19,49.16 C41.88,50.26 43.26,50.37 44.39,50.51 C46.54,50.79 48.7,50.9 50.85,51.14 C53.86,51.5 55.24,52.27 56.18,53.43 C57.15,54.67 57.2,55.92 57.2,56.49 C57.21,58.18 56.6,59.26 56.22,59.78" fill="#FFFFFF"/>
      <path d="M60.6,42.91 L63.42,42.91 L63.42,62.41 L60.6,62.41 z" fill="#FFFFFF"/>
      <path d="M88.66,62.41 L88.8,45.67 L80.82,62.41 L78.22,62.41 L70.27,45.67 L70.41,62.41 L67.81,62.41 L67.81,42.91 L71.62,42.91 L79.57,59.43 L87.53,42.91 L91.28,42.91 L91.28,62.41 z" fill="#FFFFFF"/>
      <path d="M115.3,59.56 C113.95,60.97 110.96,62.93 106.08,62.93 C105.58,62.93 104.45,62.9 103.1,62.68 C101.77,62.49 97.83,61.77 95.56,58.12 C94.23,55.97 94.15,53.76 94.15,52.87 C94.15,50.63 94.73,48.4 96.11,46.66 C96.39,46.3 96.75,45.89 97.52,45.25 C98.85,44.15 101.52,42.43 105.92,42.43 C106.8,42.43 109.45,42.51 111.97,43.67 C113.57,44.42 115.12,45.63 116.14,47.09 C117.74,49.41 117.85,51.98 117.85,52.92 C117.85,54.07 117.68,57.11 115.3,59.56 M114.34,49.26 C112.24,44.76 106.69,44.79 105.59,44.81 C104.76,44.84 101.25,45.03 98.99,47.3 C98.6,47.69 97.83,48.54 97.36,49.92 C97.06,50.8 96.92,51.83 96.92,52.76 C96.92,53.48 97,55.58 98.33,57.37 C98.61,57.73 99.02,58.23 99.88,58.83 C101.01,59.63 102.92,60.51 106.15,60.51 C106.68,60.51 107.97,60.51 109.44,60.12 C112.17,59.4 114.16,57.58 114.82,54.82 C114.9,54.43 115.07,53.63 115.07,52.64 C115.06,51 114.61,49.84 114.34,49.26" fill="#FFFFFF"/>
      <path d="M139.19,62.41 L123.92,46.28 L123.97,62.41 L121.32,62.41 L121.32,42.91 L124.17,42.91 L139.33,59.01 L139.24,42.91 L141.89,42.91 L141.89,62.41 z" fill="#FFFFFF"/>
      <path d="M164.12,59.78 C162.38,62.21 159.09,62.6 158.38,62.68 C157.94,62.74 156.81,62.87 155.56,62.87 C155.01,62.87 152.61,62.81 150.53,62.29 C150.09,62.18 149.4,62.01 148.43,61.6 C147.41,61.16 146.72,60.66 146.39,60.41 C145.34,59.61 144.87,58.89 144.57,58.45 L147.14,57.4 C147.28,57.57 147.39,57.7 147.55,57.87 C147.96,58.29 148.88,59 150.23,59.55 C152.47,60.46 155.12,60.49 155.75,60.49 C156.25,60.49 159.17,60.57 161.05,59.16 C162.21,58.28 162.38,57.06 162.38,56.54 C162.38,55.41 161.74,54.58 160.72,54.14 C159.28,53.5 155.91,53.31 154.37,53.17 C150.64,52.87 148.82,52.67 147.38,51.35 C146.05,50.13 146,48.75 146,48.09 C146,45.36 147.88,44.11 148.71,43.67 C149.87,43.03 152,42.4 155.14,42.4 C159.01,42.4 161.33,43.34 162.73,44.25 C163.06,44.47 163.34,44.66 163.61,44.91 C164.25,45.43 164.71,46.12 164.88,46.32 L162.34,47.34 C162.2,47.2 161.7,46.7 161.15,46.32 C160.07,45.57 158.22,44.69 155.16,44.69 C153.17,44.69 151.63,45.05 150.91,45.33 C149.23,45.97 148.76,47.12 148.76,47.95 C148.76,48.36 148.87,48.81 149.09,49.16 C149.78,50.26 151.16,50.37 152.29,50.51 C154.44,50.79 156.6,50.9 158.75,51.14 C161.76,51.5 163.14,52.27 164.08,53.43 C165.05,54.67 165.1,55.92 165.1,56.49 C165.12,58.18 164.51,59.26 164.12,59.78" fill="#FFFFFF"/>
      <path d="M188.67,59.56 C187.32,60.97 184.33,62.93 179.45,62.93 C178.95,62.93 177.82,62.9 176.47,62.68 C175.14,62.49 171.2,61.77 168.93,58.12 C167.6,55.97 167.52,53.76 167.52,52.87 C167.52,50.63 168.1,48.4 169.48,46.66 C169.76,46.3 170.12,45.89 170.89,45.25 C172.22,44.15 174.89,42.43 179.29,42.43 C180.17,42.43 182.83,42.51 185.34,43.67 C186.94,44.42 188.49,45.63 189.51,47.09 C191.11,49.41 191.22,51.98 191.22,52.92 C191.21,54.07 191.04,57.11 188.67,59.56 M187.7,49.26 C185.6,44.76 180.05,44.79 178.95,44.81 C178.12,44.84 174.61,45.03 172.35,47.3 C171.96,47.69 171.19,48.54 170.72,49.92 C170.42,50.8 170.28,51.83 170.28,52.76 C170.28,53.48 170.36,55.58 171.69,57.37 C171.97,57.73 172.38,58.23 173.24,58.83 C174.37,59.63 176.28,60.51 179.51,60.51 C180.04,60.51 181.33,60.51 182.8,60.12 C185.53,59.4 187.52,57.58 188.18,54.82 C188.26,54.43 188.43,53.63 188.43,52.64 C188.42,51 187.98,49.84 187.7,49.26" fill="#FFFFFF"/>
      <path d="M197.45,45.31 L197.45,51.56 L211.5,51.56 L211.5,53.85 L197.45,53.85 L197.45,62.41 L194.71,62.41 L194.71,42.91 L212.05,42.91 L212.05,45.31 z" fill="#FFFFFF"/>
      <path d="M223.9,45.23 L223.9,62.41 L221.14,62.41 L221.14,45.23 L213.18,45.23 L213.18,42.91 L231.88,42.91 L231.88,45.23 z" fill="#FFFFFF"/>
      <path d="M253.67,59.18 C250.49,62.91 244.86,62.91 243.73,62.91 C239.86,62.91 237.6,61.83 236.22,60.95 C235.72,60.62 235.34,60.31 234.89,59.93 C234.61,59.65 234.01,59.05 233.45,58.16 C232.76,57.11 231.9,55.42 231.9,52.53 C231.9,51.59 231.96,49.02 233.61,46.73 C233.89,46.32 234.24,45.87 235.02,45.18 C235.71,44.6 236.51,44.05 237.28,43.66 C239.79,42.39 242.91,42.33 243.66,42.33 C244.57,42.33 248.19,42.41 251.01,44.13 C251.4,44.38 252.2,44.9 253.03,45.76 C253.91,46.7 254.38,47.56 254.63,48 L251.68,48.64 C251.51,48.34 251.35,48.06 251.15,47.78 C250.71,47.17 250.05,46.57 249.41,46.18 C248.5,45.6 246.54,44.77 243.78,44.77 C243.01,44.77 240,44.8 237.73,46.4 C237.51,46.54 237.09,46.87 236.62,47.39 C235.87,48.19 234.83,49.74 234.83,52.5 C234.83,53.3 234.91,55.51 236.38,57.42 C238.12,59.68 240.99,60.21 241.82,60.35 C242.76,60.49 243.75,60.49 244.06,60.49 C244.94,60.49 248.73,60.52 251.05,57.98 C251.52,57.48 251.8,57.07 252.13,56.49 L255.06,57.1 C254.42,58.21 254.06,58.71 253.67,59.18" fill="#FFFFFF"/>
      <path d="M278.77,62.41 L278.91,45.67 L270.93,62.41 L268.33,62.41 L260.38,45.67 L260.52,62.41 L257.92,62.41 L257.92,42.91 L261.73,42.91 L269.69,59.43 L277.64,42.91 L281.39,42.91 L281.39,62.41 z" fill="#FFFFFF"/>
      <path d="M303.01,59.78 C301.27,62.21 297.98,62.6 297.27,62.68 C296.83,62.74 295.7,62.87 294.45,62.87 C293.9,62.87 291.5,62.81 289.42,62.29 C288.98,62.18 288.29,62.01 287.32,61.6 C286.3,61.16 285.61,60.66 285.28,60.41 C284.23,59.61 283.76,58.89 283.46,58.45 L286.03,57.4 C286.17,57.57 286.28,57.7 286.44,57.87 C286.85,58.29 287.77,59 289.12,59.55 C291.36,60.46 294.01,60.49 294.64,60.49 C295.14,60.49 298.06,60.57 299.94,59.16 C301.1,58.28 301.27,57.06 301.27,56.54 C301.27,55.41 300.63,54.58 299.61,54.14 C298.17,53.5 294.81,53.31 293.26,53.17 C289.53,52.87 287.71,52.67 286.27,51.35 C284.94,50.13 284.89,48.75 284.89,48.09 C284.89,45.36 286.77,44.11 287.6,43.67 C288.76,43.03 290.89,42.4 294.03,42.4 C297.9,42.4 300.22,43.34 301.62,44.25 C301.95,44.47 302.23,44.66 302.5,44.91 C303.13,45.43 303.6,46.12 303.77,46.32 L301.23,47.34 C301.09,47.2 300.59,46.7 300.04,46.32 C298.96,45.57 297.11,44.69 294.05,44.69 C292.06,44.69 290.52,45.05 289.8,45.33 C288.12,45.97 287.65,47.12 287.65,47.95 C287.65,48.36 287.76,48.81 287.98,49.16 C288.67,50.26 290.05,50.37 291.18,50.51 C293.33,50.79 295.49,50.9 297.64,51.14 C300.65,51.5 302.03,52.27 302.97,53.43 C303.94,54.67 303.99,55.92 303.99,56.49 C304.01,58.18 303.4,59.26 303.01,59.78" fill="#FFFFFF"/>
    </g>
  </g>
</svg>
