<?xml version="1.0" encoding="UTF-8"?>
<!DOCTYPE svg PUBLIC "-//W3C//DTD SVG 1.1//EN" "http://www.w3.org/Graphics/SVG/1.1/DTD/svg11.dtd">
<svg version="1.1" xmlns="http://www.w3.org/2000/svg" xmlns:xlink="http://www.w3.org/1999/xlink" x="0" y="0" width="195.22" height="20.52" viewBox="0, 0, 195.22, 20.52">
  <g id="Layer_1">
    <path d="M19.55,17.38 C17.81,19.81 14.52,20.2 13.81,20.28 C13.37,20.34 12.24,20.47 10.99,20.47 C10.44,20.47 8.04,20.41 5.96,19.89 C5.52,19.78 4.83,19.61 3.86,19.2 C2.84,18.76 2.15,18.26 1.82,18.01 C0.77,17.21 0.3,16.49 0,16.05 L2.57,15 C2.71,15.17 2.82,15.3 2.98,15.47 C3.39,15.89 4.31,16.6 5.66,17.15 C7.9,18.06 10.55,18.09 11.18,18.09 C11.68,18.09 14.6,18.17 16.48,16.76 C17.64,15.88 17.81,14.66 17.81,14.14 C17.81,13.01 17.17,12.18 16.15,11.74 C14.71,11.1 11.34,10.91 9.8,10.77 C6.07,10.47 4.25,10.27 2.81,8.95 C1.48,7.73 1.43,6.35 1.43,5.69 C1.43,2.96 3.31,1.71 4.14,1.27 C5.3,0.63 7.43,0 10.57,0 C14.44,0 16.76,0.94 18.16,1.85 C18.49,2.07 18.77,2.26 19.04,2.51 C19.68,3.03 20.14,3.72 20.31,3.92 L17.77,4.94 C17.63,4.8 17.13,4.3 16.58,3.92 C15.5,3.17 13.65,2.29 10.59,2.29 C8.6,2.29 7.06,2.65 6.34,2.93 C4.66,3.57 4.19,4.72 4.19,5.55 C4.19,5.96 4.3,6.41 4.52,6.76 C5.21,7.86 6.59,7.97 7.72,8.11 C9.87,8.39 12.03,8.5 14.18,8.74 C17.19,9.1 18.57,9.87 19.51,11.03 C20.48,12.27 20.53,13.52 20.53,14.09 C20.55,15.77 19.94,16.85 19.55,17.38" fill="#000000"/>
    <path d="M23.94,0.5 L26.76,0.5 L26.76,20 L23.94,20 z" fill="#000000"/>
    <path d="M52,20 L52.13,3.26 L44.15,20 L41.56,20 L33.6,3.26 L33.74,20 L31.15,20 L31.15,0.5 L34.96,0.5 L42.91,17.02 L50.86,0.5 L54.62,0.5 L54.62,20 z" fill="#000000"/>
    <path d="M78.64,17.15 C77.29,18.56 74.3,20.52 69.42,20.52 C68.92,20.52 67.79,20.49 66.44,20.27 C65.11,20.08 61.17,19.36 58.9,15.71 C57.57,13.56 57.49,11.35 57.49,10.46 C57.49,8.22 58.07,5.99 59.45,4.25 C59.73,3.89 60.09,3.48 60.86,2.84 C62.19,1.74 64.86,0.02 69.26,0.02 C70.14,0.02 72.79,0.1 75.31,1.26 C76.91,2.01 78.46,3.22 79.48,4.68 C81.08,7 81.19,9.57 81.19,10.51 C81.18,11.66 81.02,14.7 78.64,17.15 M77.67,6.85 C75.57,2.35 70.02,2.38 68.92,2.4 C68.09,2.43 64.58,2.62 62.32,4.89 C61.93,5.28 61.16,6.13 60.69,7.51 C60.39,8.39 60.25,9.42 60.25,10.35 C60.25,11.07 60.33,13.17 61.66,14.96 C61.94,15.32 62.35,15.82 63.21,16.42 C64.34,17.22 66.25,18.1 69.48,18.1 C70.01,18.1 71.3,18.1 72.77,17.71 C75.5,16.99 77.49,15.17 78.15,12.41 C78.23,12.02 78.4,11.22 78.4,10.23 C78.39,8.59 77.95,7.43 77.67,6.85" fill="#000000"/>
    <path d="M102.52,20 L87.25,3.87 L87.31,20 L84.66,20 L84.66,0.5 L87.5,0.5 L102.66,16.6 L102.58,0.5 L105.23,0.5 L105.23,20 z" fill="#000000"/>
    <path d="M127.46,17.38 C125.72,19.81 122.43,20.2 121.72,20.28 C121.28,20.34 120.15,20.47 118.9,20.47 C118.35,20.47 115.95,20.41 113.87,19.89 C113.43,19.78 112.74,19.61 111.77,19.2 C110.75,18.76 110.06,18.26 109.73,18.01 C108.68,17.21 108.21,16.49 107.91,16.05 L110.48,15 C110.62,15.17 110.73,15.3 110.89,15.47 C111.3,15.89 112.22,16.6 113.57,17.15 C115.81,18.06 118.46,18.09 119.09,18.09 C119.59,18.09 122.51,18.17 124.39,16.76 C125.55,15.88 125.72,14.66 125.72,14.14 C125.72,13.01 125.08,12.18 124.06,11.74 C122.62,11.1 119.25,10.91 117.71,10.77 C113.98,10.47 112.16,10.27 110.72,8.95 C109.39,7.73 109.34,6.35 109.34,5.69 C109.34,2.96 111.22,1.71 112.05,1.27 C113.21,0.63 115.34,0 118.48,0 C122.35,0 124.67,0.94 126.07,1.85 C126.4,2.07 126.68,2.26 126.95,2.51 C127.59,3.03 128.05,3.72 128.22,3.92 L125.68,4.94 C125.54,4.8 125.04,4.3 124.49,3.92 C123.41,3.17 121.56,2.29 118.5,2.29 C116.51,2.29 114.97,2.65 114.25,2.93 C112.57,3.57 112.1,4.72 112.1,5.55 C112.1,5.96 112.21,6.41 112.43,6.76 C113.12,7.86 114.5,7.97 115.63,8.11 C117.78,8.39 119.94,8.5 122.09,8.74 C125.1,9.1 126.48,9.87 127.42,11.03 C128.39,12.27 128.44,13.52 128.44,14.09 C128.45,15.77 127.84,16.85 127.46,17.38" fill="#000000"/>
    <path d="M152,17.15 C150.65,18.56 147.66,20.52 142.78,20.52 C142.28,20.52 141.15,20.49 139.8,20.27 C138.47,20.08 134.53,19.36 132.26,15.71 C130.93,13.56 130.85,11.35 130.85,10.46 C130.85,8.22 131.43,5.99 132.81,4.25 C133.09,3.89 133.45,3.48 134.22,2.84 C135.55,1.74 138.22,0.02 142.62,0.02 C143.5,0.02 146.16,0.1 148.67,1.26 C150.27,2.01 151.82,3.22 152.84,4.68 C154.44,7 154.55,9.57 154.55,10.51 C154.54,11.66 154.38,14.7 152,17.15 M151.04,6.85 C148.94,2.35 143.39,2.38 142.29,2.4 C141.46,2.43 137.95,2.62 135.69,4.89 C135.3,5.28 134.53,6.13 134.06,7.51 C133.76,8.39 133.62,9.42 133.62,10.35 C133.62,11.07 133.7,13.17 135.03,14.96 C135.31,15.32 135.72,15.82 136.58,16.42 C137.71,17.22 139.62,18.1 142.85,18.1 C143.38,18.1 144.67,18.1 146.14,17.71 C148.87,16.99 150.86,15.17 151.52,12.41 C151.6,12.02 151.77,11.22 151.77,10.23 C151.76,8.59 151.31,7.43 151.04,6.85" fill="#000000"/>
    <path d="M160.78,2.9 L160.78,9.15 L174.84,9.15 L174.84,11.44 L160.78,11.44 L160.78,20 L158.05,20 L158.05,0.5 L175.39,0.5 L175.39,2.9 z" fill="#000000"/>
    <path d="M187.23,2.82 L187.23,20 L184.47,20 L184.47,2.82 L176.52,2.82 L176.52,0.5 L195.22,0.5 L195.22,2.82 z" fill="#000000"/>
  </g>
</svg>
