<?xml version="1.0" encoding="UTF-8"?>
<!DOCTYPE svg PUBLIC "-//W3C//DTD SVG 1.1//EN" "http://www.w3.org/Graphics/SVG/1.1/DTD/svg11.dtd">
<svg version="1.1" xmlns="http://www.w3.org/2000/svg" xmlns:xlink="http://www.w3.org/1999/xlink" x="0" y="0" width="267.32" height="20.6" viewBox="0, 0, 267.32, 20.6">
  <g id="Layer_1">
    <g>
      <path d="M19.55,17.45 C17.81,19.88 14.52,20.27 13.81,20.35 C13.37,20.41 12.24,20.54 10.99,20.54 C10.44,20.54 8.04,20.48 5.96,19.96 C5.52,19.85 4.83,19.68 3.86,19.27 C2.84,18.83 2.15,18.33 1.82,18.08 C0.77,17.28 0.3,16.56 -0,16.12 L2.57,15.07 C2.71,15.24 2.82,15.37 2.98,15.54 C3.39,15.96 4.31,16.67 5.66,17.22 C7.9,18.13 10.55,18.16 11.18,18.16 C11.68,18.16 14.6,18.24 16.48,16.83 C17.64,15.95 17.81,14.73 17.81,14.21 C17.81,13.08 17.17,12.25 16.15,11.81 C14.71,11.17 11.34,10.98 9.8,10.84 C6.07,10.54 4.25,10.34 2.81,9.02 C1.48,7.8 1.43,6.42 1.43,5.76 C1.43,3.03 3.31,1.78 4.14,1.34 C5.3,0.7 7.43,0.07 10.57,0.07 C14.44,0.07 16.76,1.01 18.16,1.92 C18.49,2.14 18.77,2.33 19.04,2.58 C19.68,3.1 20.14,3.79 20.31,3.99 L17.77,5.01 C17.63,4.87 17.13,4.37 16.58,3.99 C15.5,3.24 13.65,2.36 10.59,2.36 C8.6,2.36 7.06,2.72 6.34,3 C4.66,3.64 4.19,4.79 4.19,5.62 C4.19,6.03 4.3,6.48 4.52,6.83 C5.21,7.93 6.59,8.04 7.72,8.18 C9.87,8.46 12.03,8.57 14.18,8.81 C17.19,9.17 18.57,9.94 19.51,11.1 C20.48,12.34 20.53,13.59 20.53,14.16 C20.54,15.85 19.93,16.93 19.55,17.45" fill="#000000"/>
      <path d="M23.93,0.58 L26.75,0.58 L26.75,20.08 L23.93,20.08 z" fill="#000000"/>
      <path d="M51.99,20.08 L52.13,3.34 L44.15,20.08 L41.55,20.08 L33.6,3.34 L33.74,20.08 L31.14,20.08 L31.14,0.58 L34.95,0.58 L42.9,17.1 L50.86,0.58 L54.61,0.58 L54.61,20.08 z" fill="#000000"/>
      <path d="M78.63,17.23 C77.28,18.64 74.29,20.6 69.41,20.6 C68.91,20.6 67.78,20.57 66.43,20.35 C65.1,20.16 61.16,19.44 58.89,15.79 C57.56,13.64 57.48,11.43 57.48,10.54 C57.48,8.3 58.06,6.07 59.44,4.33 C59.72,3.97 60.08,3.56 60.85,2.92 C62.18,1.82 64.85,0.1 69.25,0.1 C70.13,0.1 72.78,0.18 75.3,1.34 C76.9,2.09 78.45,3.3 79.47,4.76 C81.07,7.08 81.18,9.65 81.18,10.59 C81.18,11.74 81.01,14.78 78.63,17.23 M77.67,6.93 C75.57,2.43 70.02,2.46 68.92,2.48 C68.09,2.51 64.58,2.7 62.32,4.97 C61.93,5.36 61.16,6.21 60.69,7.59 C60.39,8.47 60.25,9.5 60.25,10.43 C60.25,11.15 60.33,13.25 61.66,15.04 C61.94,15.4 62.35,15.9 63.21,16.5 C64.34,17.3 66.25,18.18 69.48,18.18 C70.01,18.18 71.3,18.18 72.77,17.79 C75.5,17.07 77.49,15.25 78.15,12.49 C78.23,12.1 78.4,11.3 78.4,10.31 C78.39,8.67 77.94,7.51 77.67,6.93" fill="#000000"/>
      <path d="M102.52,20.08 L87.25,3.95 L87.3,20.08 L84.65,20.08 L84.65,0.58 L87.5,0.58 L102.66,16.68 L102.57,0.58 L105.22,0.58 L105.22,20.08 z" fill="#000000"/>
      <path d="M127.45,17.45 C125.71,19.88 122.42,20.27 121.71,20.35 C121.27,20.41 120.14,20.54 118.89,20.54 C118.34,20.54 115.94,20.48 113.86,19.96 C113.42,19.85 112.73,19.68 111.76,19.27 C110.74,18.83 110.05,18.33 109.72,18.08 C108.67,17.28 108.2,16.56 107.9,16.12 L110.47,15.07 C110.61,15.24 110.72,15.37 110.88,15.54 C111.29,15.96 112.21,16.67 113.56,17.22 C115.8,18.13 118.45,18.16 119.08,18.16 C119.58,18.16 122.5,18.24 124.38,16.83 C125.54,15.95 125.71,14.73 125.71,14.21 C125.71,13.08 125.07,12.25 124.05,11.81 C122.61,11.17 119.24,10.98 117.7,10.84 C113.97,10.54 112.15,10.34 110.71,9.02 C109.38,7.8 109.33,6.42 109.33,5.76 C109.33,3.03 111.21,1.78 112.04,1.34 C113.2,0.7 115.33,0.07 118.47,0.07 C122.34,0.07 124.66,1.01 126.06,1.92 C126.39,2.14 126.67,2.33 126.94,2.58 C127.58,3.1 128.04,3.79 128.21,3.99 L125.67,5.01 C125.53,4.87 125.03,4.37 124.48,3.99 C123.4,3.24 121.55,2.36 118.49,2.36 C116.5,2.36 114.96,2.72 114.24,3 C112.56,3.64 112.09,4.79 112.09,5.62 C112.09,6.03 112.2,6.48 112.42,6.83 C113.11,7.93 114.49,8.04 115.62,8.18 C117.77,8.46 119.93,8.57 122.08,8.81 C125.09,9.17 126.47,9.94 127.41,11.1 C128.38,12.34 128.43,13.59 128.43,14.16 C128.45,15.85 127.84,16.93 127.45,17.45" fill="#000000"/>
      <path d="M152,17.23 C150.65,18.64 147.66,20.6 142.78,20.6 C142.28,20.6 141.15,20.57 139.8,20.35 C138.47,20.16 134.53,19.44 132.26,15.79 C130.93,13.64 130.85,11.43 130.85,10.54 C130.85,8.3 131.43,6.07 132.81,4.33 C133.09,3.97 133.45,3.56 134.22,2.92 C135.55,1.82 138.22,0.1 142.62,0.1 C143.5,0.1 146.16,0.18 148.67,1.34 C150.27,2.09 151.82,3.3 152.84,4.76 C154.44,7.08 154.55,9.65 154.55,10.59 C154.54,11.74 154.37,14.78 152,17.23 M151.03,6.93 C148.93,2.43 143.38,2.46 142.28,2.48 C141.45,2.51 137.94,2.7 135.68,4.97 C135.29,5.36 134.52,6.21 134.05,7.59 C133.75,8.47 133.61,9.5 133.61,10.43 C133.61,11.15 133.69,13.25 135.02,15.04 C135.3,15.4 135.71,15.9 136.57,16.5 C137.7,17.3 139.61,18.18 142.84,18.18 C143.37,18.18 144.66,18.18 146.13,17.79 C148.86,17.07 150.85,15.25 151.51,12.49 C151.59,12.1 151.76,11.3 151.76,10.31 C151.75,8.67 151.31,7.51 151.03,6.93" fill="#000000"/>
      <path d="M160.78,2.98 L160.78,9.23 L174.83,9.23 L174.83,11.52 L160.78,11.52 L160.78,20.08 L158.04,20.08 L158.04,0.58 L175.38,0.58 L175.38,2.98 z" fill="#000000"/>
      <path d="M187.23,2.9 L187.23,20.08 L184.47,20.08 L184.47,2.9 L176.51,2.9 L176.51,0.58 L195.21,0.58 L195.21,2.9 z" fill="#000000"/>
      <path d="M217,16.85 C213.82,20.58 208.19,20.58 207.06,20.58 C203.19,20.58 200.93,19.5 199.55,18.62 C199.05,18.29 198.67,17.98 198.22,17.6 C197.94,17.32 197.34,16.72 196.78,15.83 C196.09,14.78 195.23,13.09 195.23,10.2 C195.23,9.26 195.29,6.69 196.94,4.4 C197.22,3.99 197.57,3.54 198.35,2.85 C199.04,2.27 199.84,1.72 200.61,1.33 C203.12,0.06 206.24,-0 206.99,-0 C207.9,-0 211.52,0.08 214.34,1.8 C214.73,2.05 215.53,2.57 216.36,3.43 C217.24,4.37 217.71,5.23 217.96,5.67 L215.01,6.31 C214.84,6.01 214.68,5.73 214.48,5.45 C214.04,4.84 213.38,4.24 212.74,3.85 C211.83,3.27 209.87,2.44 207.11,2.44 C206.34,2.44 203.33,2.47 201.06,4.07 C200.84,4.21 200.42,4.54 199.95,5.06 C199.2,5.86 198.16,7.41 198.16,10.17 C198.16,10.97 198.24,13.18 199.71,15.09 C201.45,17.35 204.32,17.88 205.15,18.02 C206.09,18.16 207.08,18.16 207.39,18.16 C208.27,18.16 212.06,18.19 214.38,15.65 C214.85,15.15 215.13,14.74 215.46,14.16 L218.39,14.77 C217.75,15.88 217.39,16.38 217,16.85" fill="#000000"/>
      <path d="M242.1,20.08 L242.24,3.34 L234.26,20.08 L231.66,20.08 L223.71,3.34 L223.85,20.08 L221.25,20.08 L221.25,0.58 L225.06,0.58 L233.02,17.1 L240.97,0.58 L244.72,0.58 L244.72,20.08 z" fill="#000000"/>
      <path d="M266.34,17.45 C264.6,19.88 261.31,20.27 260.6,20.35 C260.16,20.41 259.03,20.54 257.78,20.54 C257.23,20.54 254.83,20.48 252.75,19.96 C252.31,19.85 251.62,19.68 250.65,19.27 C249.63,18.83 248.94,18.33 248.61,18.08 C247.56,17.28 247.09,16.56 246.79,16.12 L249.36,15.07 C249.5,15.24 249.61,15.37 249.77,15.54 C250.18,15.96 251.1,16.67 252.45,17.22 C254.69,18.13 257.34,18.16 257.97,18.16 C258.47,18.16 261.39,18.24 263.27,16.83 C264.43,15.95 264.6,14.73 264.6,14.21 C264.6,13.08 263.96,12.25 262.94,11.81 C261.5,11.17 258.14,10.98 256.59,10.84 C252.86,10.54 251.04,10.34 249.6,9.02 C248.27,7.8 248.22,6.42 248.22,5.76 C248.22,3.03 250.1,1.78 250.93,1.34 C252.09,0.7 254.22,0.07 257.36,0.07 C261.23,0.07 263.55,1.01 264.95,1.92 C265.28,2.14 265.56,2.33 265.83,2.58 C266.46,3.1 266.93,3.79 267.1,3.99 L264.56,5.01 C264.42,4.87 263.92,4.37 263.37,3.99 C262.29,3.24 260.44,2.36 257.38,2.36 C255.39,2.36 253.85,2.72 253.13,3 C251.45,3.64 250.98,4.79 250.98,5.62 C250.98,6.03 251.09,6.48 251.31,6.83 C252,7.93 253.38,8.04 254.51,8.18 C256.66,8.46 258.82,8.57 260.97,8.81 C263.98,9.17 265.36,9.94 266.3,11.1 C267.27,12.34 267.32,13.59 267.32,14.16 C267.34,15.85 266.73,16.93 266.34,17.45" fill="#000000"/>
    </g>
  </g>
</svg>
