<?xml version="1.0" encoding="UTF-8"?>
<!DOCTYPE svg PUBLIC "-//W3C//DTD SVG 1.1//EN" "http://www.w3.org/Graphics/SVG/1.1/DTD/svg11.dtd">
<svg version="1.1" xmlns="http://www.w3.org/2000/svg" xmlns:xlink="http://www.w3.org/1999/xlink" x="0" y="0" width="280.74" height="105.38" viewBox="0, 0, 280.74, 105.38">
  <g id="Layer_1">
    <path d="M0,0 L280.74,0 L280.74,105.38 L0,105.38 z" fill="#1E3480"/>
    <g>
      <path d="M62.31,60.46 C60.57,62.89 57.28,63.28 56.57,63.36 C56.13,63.42 55,63.55 53.75,63.55 C53.2,63.55 50.8,63.49 48.72,62.97 C48.28,62.86 47.59,62.69 46.62,62.28 C45.6,61.84 44.91,61.34 44.58,61.09 C43.53,60.29 43.06,59.57 42.76,59.13 L45.33,58.08 C45.47,58.25 45.58,58.38 45.74,58.55 C46.15,58.97 47.07,59.68 48.42,60.23 C50.66,61.14 53.31,61.17 53.94,61.17 C54.44,61.17 57.36,61.25 59.24,59.84 C60.4,58.96 60.57,57.74 60.57,57.22 C60.57,56.09 59.93,55.26 58.91,54.82 C57.47,54.18 54.1,53.99 52.56,53.85 C48.83,53.55 47.01,53.35 45.57,52.03 C44.24,50.81 44.19,49.43 44.19,48.77 C44.19,46.04 46.07,44.79 46.9,44.35 C48.06,43.71 50.19,43.08 53.33,43.08 C57.2,43.08 59.52,44.02 60.92,44.93 C61.25,45.15 61.53,45.34 61.8,45.59 C62.44,46.11 62.9,46.8 63.07,47 L60.53,48.02 C60.39,47.88 59.89,47.38 59.34,47 C58.26,46.25 56.41,45.37 53.35,45.37 C51.36,45.37 49.82,45.73 49.1,46.01 C47.42,46.65 46.95,47.8 46.95,48.63 C46.95,49.04 47.06,49.49 47.28,49.84 C47.97,50.94 49.35,51.05 50.48,51.19 C52.63,51.47 54.79,51.58 56.94,51.82 C59.95,52.18 61.33,52.95 62.27,54.11 C63.24,55.35 63.29,56.6 63.29,57.17 C63.31,58.86 62.7,59.93 62.31,60.46" fill="#FFFFFF"/>
      <path d="M66.7,43.59 L69.52,43.59 L69.52,63.09 L66.7,63.09 z" fill="#FFFFFF"/>
      <path d="M94.76,63.08 L94.9,46.35 L86.91,63.08 L84.32,63.08 L76.37,46.35 L76.5,63.08 L73.91,63.08 L73.91,43.59 L77.72,43.59 L85.67,60.1 L93.63,43.59 L97.38,43.59 L97.38,63.08 z" fill="#FFFFFF"/>
      <path d="M121.4,60.24 C120.05,61.65 117.06,63.61 112.18,63.61 C111.68,63.61 110.55,63.58 109.2,63.36 C107.87,63.17 103.93,62.45 101.66,58.8 C100.33,56.65 100.25,54.44 100.25,53.55 C100.25,51.31 100.83,49.08 102.21,47.34 C102.49,46.98 102.85,46.57 103.62,45.93 C104.95,44.83 107.62,43.11 112.02,43.11 C112.9,43.11 115.55,43.19 118.07,44.35 C119.67,45.1 121.22,46.31 122.24,47.77 C123.84,50.09 123.95,52.66 123.95,53.6 C123.94,54.74 123.78,57.78 121.4,60.24 M120.44,49.94 C118.34,45.44 112.79,45.47 111.69,45.49 C110.86,45.52 107.35,45.71 105.09,47.98 C104.7,48.37 103.93,49.22 103.46,50.6 C103.16,51.48 103.02,52.51 103.02,53.44 C103.02,54.16 103.1,56.26 104.43,58.05 C104.71,58.41 105.12,58.91 105.98,59.51 C107.11,60.31 109.02,61.19 112.25,61.19 C112.78,61.19 114.07,61.19 115.54,60.8 C118.27,60.08 120.26,58.26 120.92,55.5 C121,55.11 121.17,54.31 121.17,53.32 C121.15,51.68 120.71,50.52 120.44,49.94" fill="#FFFFFF"/>
      <path d="M145.29,63.08 L130.01,46.95 L130.07,63.08 L127.42,63.08 L127.42,43.59 L130.26,43.59 L145.42,59.68 L145.34,43.59 L147.99,43.59 L147.99,63.08 z" fill="#FFFFFF"/>
      <path d="M170.22,60.46 C168.48,62.89 165.19,63.28 164.48,63.36 C164.04,63.42 162.91,63.55 161.66,63.55 C161.11,63.55 158.71,63.49 156.63,62.97 C156.19,62.86 155.5,62.69 154.53,62.28 C153.51,61.84 152.82,61.34 152.49,61.09 C151.44,60.29 150.97,59.57 150.67,59.13 L153.24,58.08 C153.38,58.25 153.49,58.38 153.65,58.55 C154.06,58.97 154.98,59.68 156.33,60.23 C158.57,61.14 161.22,61.17 161.85,61.17 C162.35,61.17 165.27,61.25 167.15,59.84 C168.31,58.96 168.48,57.74 168.48,57.22 C168.48,56.09 167.84,55.26 166.82,54.82 C165.38,54.18 162.01,53.99 160.47,53.85 C156.74,53.55 154.92,53.35 153.48,52.03 C152.15,50.81 152.1,49.43 152.1,48.77 C152.1,46.04 153.98,44.79 154.81,44.35 C155.97,43.71 158.1,43.08 161.24,43.08 C165.11,43.08 167.43,44.02 168.83,44.93 C169.16,45.15 169.44,45.34 169.71,45.59 C170.35,46.11 170.81,46.8 170.98,47 L168.44,48.02 C168.3,47.88 167.8,47.38 167.25,47 C166.17,46.25 164.32,45.37 161.26,45.37 C159.27,45.37 157.73,45.73 157.01,46.01 C155.33,46.65 154.86,47.8 154.86,48.63 C154.86,49.04 154.97,49.49 155.19,49.84 C155.88,50.94 157.26,51.05 158.39,51.19 C160.54,51.47 162.7,51.58 164.85,51.82 C167.86,52.18 169.24,52.95 170.18,54.11 C171.15,55.35 171.2,56.6 171.2,57.17 C171.21,58.86 170.61,59.93 170.22,60.46" fill="#FFFFFF"/>
      <path d="M194.76,60.24 C193.41,61.65 190.42,63.61 185.54,63.61 C185.04,63.61 183.91,63.58 182.56,63.36 C181.23,63.17 177.29,62.45 175.02,58.8 C173.69,56.65 173.61,54.44 173.61,53.55 C173.61,51.31 174.19,49.08 175.57,47.34 C175.85,46.98 176.21,46.57 176.98,45.93 C178.31,44.83 180.98,43.11 185.38,43.11 C186.26,43.11 188.92,43.19 191.43,44.35 C193.03,45.1 194.58,46.31 195.6,47.77 C197.2,50.09 197.31,52.66 197.31,53.6 C197.31,54.74 197.14,57.78 194.76,60.24 M193.8,49.94 C191.7,45.44 186.15,45.47 185.05,45.49 C184.22,45.52 180.71,45.71 178.45,47.98 C178.06,48.37 177.29,49.22 176.82,50.6 C176.52,51.48 176.38,52.51 176.38,53.44 C176.38,54.16 176.46,56.26 177.79,58.05 C178.07,58.41 178.48,58.91 179.34,59.51 C180.47,60.31 182.38,61.19 185.61,61.19 C186.14,61.19 187.43,61.19 188.9,60.8 C191.63,60.08 193.62,58.26 194.28,55.5 C194.36,55.11 194.53,54.31 194.53,53.32 C194.52,51.68 194.07,50.52 193.8,49.94" fill="#FFFFFF"/>
      <path d="M203.54,45.99 L203.54,52.23 L217.6,52.23 L217.6,54.52 L203.54,54.52 L203.54,63.08 L200.81,63.08 L200.81,43.59 L218.15,43.59 L218.15,45.99 z" fill="#FFFFFF"/>
      <path d="M230,45.91 L230,63.08 L227.23,63.08 L227.23,45.91 L219.28,45.91 L219.28,43.59 L237.98,43.59 L237.98,45.91 z" fill="#FFFFFF"/>
    </g>
  </g>
</svg>
